<svg width="132" height="27" viewBox="0 0 132 27" fill="none" xmlns="http://www.w3.org/2000/svg">
<path fill-rule="evenodd" clip-rule="evenodd" d="M17.1869 16.0184L10.2749 16.0437V19.2474C10.2749 20.6348 10.1993 21.543 10.0479 21.9214C9.89655 22.2998 9.56861 22.5016 9.03886 22.5016C8.50911 22.5016 8.15594 22.325 8.00459 21.9466C7.85323 21.5682 7.77755 20.761 7.77755 19.5249L7.75232 7.69378C7.75232 6.40725 7.828 5.57478 7.97936 5.17116C8.13072 4.79277 8.48389 4.59096 9.06409 4.59096C9.56861 4.59096 9.89655 4.74232 10.0479 5.07026C10.1993 5.3982 10.2749 6.20544 10.2749 7.49197V11.9318L17.1869 11.9066V9.48485C17.1617 7.11358 16.9599 5.34775 16.5563 4.23779C16.1274 3.10261 15.2697 2.16924 13.9327 1.41246C12.5958 0.655669 10.9308 0.302501 8.8875 0.302501C7.52529 0.277275 6.16307 0.529537 4.90176 1.05929C3.84226 1.48813 2.90889 2.16924 2.20256 3.07738C1.59713 3.8594 1.19351 4.76754 1.04215 5.72614C0.890795 7.08835 0.840343 8.4758 0.865569 9.86324L0.890795 17.305C0.890795 19.8024 1.11783 21.6691 1.54668 22.9052C1.89984 23.9395 2.58095 24.8224 3.4891 25.4026C3.59 25.4783 4.09452 25.781 4.1702 25.8062C4.32156 25.8819 5.15403 26.2351 5.30538 26.2855C5.63332 26.3864 5.96126 26.4873 6.28921 26.563C6.41534 26.5882 7.19735 26.7144 7.19735 26.7144C7.19735 26.7144 8.45866 26.8405 9.16499 26.8405C11.1074 26.8405 12.7471 26.4116 14.0589 25.5792C15.3959 24.7467 16.2536 23.7881 16.632 22.6782C17.0103 21.5682 17.2122 19.7015 17.2122 17.0779L17.1869 16.0184ZM57.5489 21.0637H53.3866V0.832253H46.5755V26.1342H57.5236L57.5489 21.0637ZM45.516 21.0637H41.3536V0.832253H34.5173V26.1342H45.4655L45.516 21.0637ZM63.3509 5.67569H60.0967V14.4544H62.0139V10.4434H63.1995V9.15691H62.0139V7.16403H63.3509V5.67569ZM20.2141 0.933157L16.7329 26.2351H22.9385C22.9385 26.2351 23.1655 24.3683 23.4935 21.7196H27.2522L27.8576 26.2351H33.9876L30.0775 0.933157H20.2141ZM24.0737 17.1788C24.5782 13.1426 25.1332 8.77851 25.4359 6.5586C25.5873 8.52625 26.6468 16.977 26.6972 17.1788H24.0737ZM55.1272 12.9661C55.1524 13.294 55.2785 13.5967 55.4551 13.849C55.6317 14.1012 55.9092 14.2778 56.1867 14.3787C56.5146 14.5049 56.8678 14.5805 57.2462 14.5805C57.6245 14.5805 57.9777 14.5049 58.3309 14.3535C58.6336 14.2526 58.8859 14.0508 59.0624 13.7985C59.239 13.5463 59.3399 13.2436 59.3904 12.9156C59.4408 12.3354 59.4661 11.7804 59.4408 11.2002V8.50102C59.4408 8.02172 59.4408 7.54243 59.3904 7.06313C59.3904 6.78564 59.2895 6.53338 59.1129 6.33157C58.9363 6.07931 58.6841 5.8775 58.3813 5.75137C58.0282 5.62523 57.6498 5.54956 57.2714 5.54956C56.893 5.54956 56.4894 5.60001 56.1362 5.75137C55.8335 5.8775 55.5812 6.07931 55.4046 6.33157C55.2533 6.55861 55.1524 6.81087 55.1524 7.06313C55.1272 7.39107 55.1019 8.17308 55.1019 8.95509V11.2002C55.0767 12.0327 55.1019 12.6633 55.1272 12.9661ZM57.0443 6.88655C57.0948 6.81087 57.1705 6.76041 57.2714 6.76041C57.3723 6.76041 57.4732 6.81086 57.4984 6.91177C57.5489 7.18926 57.5489 7.44152 57.5489 7.71901V12.3859C57.5741 12.6634 57.5489 12.9661 57.4984 13.2436C57.4732 13.3445 57.3723 13.4454 57.2462 13.4201C57.1453 13.4201 57.0443 13.3697 56.9939 13.2688C56.9434 12.9913 56.9182 12.6886 56.9434 12.4111V7.74424C56.9434 7.44152 56.9687 7.16403 57.0443 6.88655ZM90.6204 0.807026V19.4744C90.6204 20.7357 90.57 21.543 90.4439 21.8709C90.3177 22.2241 89.9646 22.4259 89.6114 22.3754C89.2835 22.4007 88.9807 22.2241 88.8546 21.9214C88.7285 21.6187 88.678 20.9123 88.678 19.8024V0.807026H81.8165V15.7914C81.8165 18.642 81.8669 20.5339 81.9931 21.4168C82.1192 22.3502 82.4724 23.2079 83.0526 23.9647C83.658 24.7719 84.5661 25.4278 85.7518 25.9071C87.0888 26.4369 88.5014 26.6891 89.9393 26.6639C91.2006 26.6891 92.462 26.4873 93.6476 26.0332C94.6566 25.6549 95.5143 24.999 96.1954 24.1665C96.7756 23.4854 97.1793 22.6529 97.3558 21.77C97.5072 20.433 97.5829 19.0708 97.5576 17.7338V0.807026H90.6204ZM128.46 22.6782V22.6529C129.015 22.4763 129.317 21.8709 129.141 21.3159C129.09 21.1394 128.99 20.988 128.863 20.8619C128.535 20.6348 128.132 20.5339 127.728 20.5592C127.375 20.5592 127.022 20.5844 126.669 20.6601V24.6206H127.249V22.9304H127.653C128.132 22.9304 128.359 23.107 128.46 23.6115C128.485 23.9647 128.561 24.2926 128.712 24.6206H129.343C129.217 24.3179 129.141 23.9899 129.116 23.6368C129.015 23.0566 128.788 22.7286 128.46 22.6782ZM127.653 22.4259H127.224V21.0889C127.375 21.0637 127.501 21.0637 127.653 21.0637C128.308 21.0637 128.561 21.4168 128.561 21.7448C128.561 22.2241 128.157 22.4259 127.653 22.4259ZM127.955 0.756574H121.623C120.715 4.71709 120.085 8.04695 119.706 10.7462C119.58 9.03077 119.025 5.70091 118.041 0.756574L98.2892 0.807026L98.3397 5.8775H102.376V26.1089H109.263V5.8775H113.274L116.603 16.977V26.1342H122.986V16.9518L127.955 0.756574ZM127.88 18.9951C126.063 18.9951 124.575 20.5844 124.575 22.552C124.575 24.5449 126.038 26.1089 127.854 26.1089C129.671 26.1089 131.134 24.5449 131.134 22.552C131.134 20.5844 129.696 18.9951 127.88 18.9951ZM127.88 25.5539C126.416 25.5539 125.206 24.217 125.206 22.552C125.206 20.8871 126.391 19.5501 127.854 19.5501H127.88C129.343 19.5501 130.528 20.8871 130.528 22.552C130.528 24.2422 129.343 25.5792 127.88 25.5539ZM80.2272 4.9189C80.0759 4.08643 79.6723 3.30442 79.0921 2.69899C78.4866 2.04311 77.5785 1.56381 76.4181 1.2611C75.2577 0.98361 73.0125 0.832253 69.6827 0.832253H64.5365V26.1342H73.2144C74.4504 26.1594 75.6865 26.0837 76.8974 25.8819C77.6542 25.7305 78.3605 25.4278 78.9659 24.9737C79.5461 24.5197 79.9498 23.889 80.1263 23.1827C80.3534 22.4259 80.4543 20.9123 80.4543 18.642V9.78756C80.4543 7.34062 80.3786 5.72614 80.2272 4.9189ZM73.2396 21.215C73.0125 21.5934 72.4071 21.7952 71.4233 21.7952V5.14594C72.1801 5.14594 72.6846 5.22162 72.9621 5.37297C73.2396 5.52433 73.4162 5.77659 73.4918 6.07931C73.5927 6.81087 73.6432 7.54243 73.618 8.29921V18.1374C73.5927 19.8024 73.4666 20.8366 73.2396 21.215Z" fill="#464F61"/>
</svg>
