<svg width="171" height="36" viewBox="0 0 171 36" fill="none" xmlns="http://www.w3.org/2000/svg">
<path fill-rule="evenodd" clip-rule="evenodd" d="M133.193 0.200195H164.075C168.489 0.200195 171.465 4.72546 169.736 8.7978L169.735 8.79823L165.911 17.7882C164.959 20.0259 162.793 21.4904 160.38 21.5393L160.372 21.5395H133.986L133.986 21.5404L131.615 27.1114L131.615 27.1119H157.286C159.491 27.1119 160.981 29.3742 160.117 31.4087L158.566 35.0504H118.365L124.34 21.0052L124.34 21.0049C126.276 16.4572 130.729 13.5063 135.657 13.5063H157.859L157.859 13.5054L160.187 8.03525L160.187 8.03468H129.859L133.193 0.200195ZM134.205 1.72858L132.172 6.5063H162.5L159.265 14.1063L158.868 15.0347H135.657C131.345 15.0347 127.445 17.6164 125.747 21.603L125.747 21.6033L120.677 33.522H157.555L158.709 30.8117C159.148 29.7772 158.386 28.6403 157.286 28.6403H129.302L132.579 20.9409L132.579 20.9394L132.977 20.0111H160.356C162.161 19.9716 163.786 18.8751 164.503 17.1903L168.552 8.03468C169.364 5.17348 167.482 2.24871 164.54 1.79948L164.075 1.72858" fill="#464F61"/>
<path fill-rule="evenodd" clip-rule="evenodd" d="M7.62739 1.1539C5.76423 1.1539 4.08157 2.25434 3.34425 3.95084L0.32158 10.9997C-0.333129 12.5281 0.795785 14.2216 2.46621 14.2216H12.3083C12.7763 14.2216 13.1985 13.9434 13.379 13.5185L14.358 11.2443H4.00202L6.77077 4.79757L5.26861 4.09145H16.6648C17.1329 4.09145 17.5551 3.81329 17.7356 3.3884L18.6963 1.1539H7.62739ZM33.0172 11.4063C32.286 13.115 30.6003 14.2216 28.731 14.2216H18.3291C16.6587 14.2216 15.5329 12.5251 16.1876 10.9967L19.2102 3.96307C19.9414 2.25739 21.6271 1.15084 23.4934 1.15084H33.8953C35.5657 1.15084 36.6916 2.84735 36.0369 4.37573L33.0172 11.4063ZM29.6121 10.5412L32.3809 4.09145H21.1988L22.6306 4.79757L19.8619 11.2443H28.5444C29.0094 11.2443 29.4286 10.9692 29.6121 10.5412ZM42.1342 33.6748H39.9223L44.2788 23.5416C44.1075 23.5416 39.4603 23.5416 39.4603 23.5416L40.733 20.6041H54.1117L53.2275 22.6857C53.0164 23.184 52.4137 23.5416 51.8263 23.5416H48.0205L44.2788 32.2656C43.9148 33.1215 43.0704 33.6748 42.1342 33.6748ZM85.9202 30.0403L81.5422 30.0373L79.9513 33.6748H76.2739L81.9062 20.6071H85.5744L82.9219 26.7757L91.632 20.8119C91.8278 20.6775 92.0573 20.6071 92.2959 20.6071H97.8089L88.0495 27.3442L92.455 33.6779H88.4258L85.9202 30.0403ZM78.8836 20.6041H75.1144L69.4912 33.6748H72.2355C72.826 33.6748 73.4562 33.2866 73.6673 32.7883L78.8836 20.6041ZM67.8575 33.6748H63.9293L62.3109 30.6975H55.3599L54.6838 32.2687C54.3167 33.1215 53.4723 33.6748 52.5392 33.6748H50.2997L55.9198 20.6071H68.4174C70.0909 20.6071 71.2198 22.3036 70.562 23.832L68.139 29.4656C67.8178 30.2146 67.0774 30.6975 66.2605 30.6975L67.8575 33.6748ZM69.0874 27.2006L67.007 23.5447L56.703 23.5539L58.1287 24.2386L56.6082 27.7905H64.4188C64.8869 27.7905 65.3091 27.5124 65.4926 27.0844L67.007 23.5416L69.0874 27.2006ZM100.312 26.0329H108.762L107.966 27.8761C107.783 28.301 107.36 28.5761 106.895 28.5761H99.2101L98.2954 30.6945H108.618L107.648 32.9687C107.464 33.3966 107.045 33.6748 106.577 33.6748H95.0188C94.1835 33.6748 93.6206 32.825 93.948 32.0608L98.2617 22.0102C98.6288 21.1574 99.4702 20.6041 100.403 20.6041H112.956L111.998 22.8386C111.815 23.2665 111.393 23.5416 110.928 23.5416H99.6262L101.082 24.2325L100.312 26.0329ZM39.0136 11.2443L43.309 1.15696H41.0665C40.1334 1.15696 39.292 1.71024 38.9249 2.56307L35.2904 10.9997C34.6326 12.5281 35.7615 14.2246 37.4319 14.2246H46.9711C48.8434 14.2246 50.5322 13.115 51.2634 11.4032L55.6445 1.15696L53.4264 1.1539C52.4902 1.1539 51.6458 1.70718 51.2787 2.56307L47.8644 10.5351C47.6839 10.9631 47.2587 11.2443 46.7906 11.2443H39.0136ZM77.464 14.2246H75.2521L79.6117 4.09145C79.4404 4.09145 74.7932 4.09145 74.7932 4.09145L76.0659 1.1539H89.4446L88.5604 3.23556C88.3493 3.73381 87.7466 4.09145 87.1592 4.09145H83.3533L79.6117 12.8155C79.2446 13.6683 78.4002 14.2246 77.464 14.2246ZM118.126 11.2443L119.726 14.2216H115.798L114.177 11.2443H107.226L106.55 12.8155C106.182 13.6683 105.338 14.2216 104.405 14.2216H102.162L107.783 1.1539H120.28C121.954 1.1539 123.083 2.8504 122.425 4.37879L120.002 10.0124C119.687 10.7613 118.946 11.2443 118.126 11.2443ZM118.876 4.09145L117.361 7.63424C117.178 8.06219 116.756 8.34035 116.288 8.34035H108.477L109.994 4.7884L108.569 4.10368L118.876 4.09145ZM101.291 6.58271H92.8191L93.5931 4.78228L92.1338 4.09145H103.46C103.928 4.09145 104.35 3.81329 104.533 3.3884L105.494 1.1539H92.9109C91.9747 1.1539 91.1303 1.70718 90.7632 2.56001L86.4372 12.6107C86.1098 13.3748 86.6728 14.2216 87.511 14.2216H99.0969C99.565 14.2216 99.9872 13.9434 100.171 13.5155L101.144 11.2412H90.7968L91.7146 9.12288H99.4182C99.8832 9.12288 100.305 8.84778 100.492 8.42289L101.291 6.58271ZM56.9294 12.8155C56.5623 13.6683 55.7179 14.2216 54.7848 14.2216H52.5422L58.1654 1.1539L60.9739 1.15084C61.4053 1.15084 61.803 1.38622 62.0049 1.76831L66.49 10.1897L69.788 2.56001C70.1551 1.71023 70.9965 1.15696 71.9296 1.15696L74.2058 1.1539L68.8794 13.5185C68.6958 13.9434 68.2736 14.2216 67.8055 14.2216H65.4192C64.9878 14.2216 64.5901 13.9862 64.3882 13.6072L60.0683 5.5159L56.9294 12.8155ZM30.8267 30.6975L31.7262 28.6067H23.8697C22.1992 28.6067 21.0703 26.9132 21.722 25.3879L22.5603 23.4285C23.2915 21.7167 24.9802 20.6041 26.8556 20.6041H38.8362L37.8786 22.8386C37.695 23.2665 37.2728 23.5447 36.8048 23.5447H24.4234L25.8889 24.2508L25.3137 25.5958H33.161C34.8345 25.5958 35.9634 27.2923 35.3057 28.8207L34.4276 30.8626C33.6934 32.5683 32.0046 33.6748 30.1384 33.6748H18.1547L19.1399 31.3975C19.3234 30.9726 19.7456 30.6975 20.2106 30.6975H30.8267Z" fill="#464F61"/>
</svg>
