<svg width="24" height="20" viewBox="0 0 24 20" fill="none" xmlns="http://www.w3.org/2000/svg">
<path d="M20.3178 2.37057C18.7615 1.65637 17.1194 1.14663 15.4323 0.854069C15.417 0.851495 15.4013 0.853718 15.3873 0.860433C15.3733 0.867149 15.3618 0.878026 15.3543 0.891569C15.1428 1.26657 14.9088 1.75707 14.7453 2.14107C12.9267 1.86508 11.0768 1.86508 9.25825 2.14107C9.07587 1.7133 8.86954 1.29614 8.64025 0.891569C8.63256 0.878174 8.62099 0.867422 8.60707 0.860729C8.59314 0.854035 8.57752 0.851714 8.56225 0.854069C6.87475 1.14507 5.23225 1.65507 3.67675 2.37057C3.66344 2.37565 3.65231 2.38519 3.64525 2.39757C0.534253 7.04607 -0.319247 11.5806 0.0992533 16.0581C0.100753 16.0791 0.114253 16.1001 0.130753 16.1136C1.94234 17.4555 3.96864 18.4801 6.12325 19.1436C6.13847 19.1484 6.15481 19.1482 6.16992 19.1431C6.18502 19.1379 6.1981 19.1281 6.20725 19.1151C6.66925 18.4851 7.08025 17.8206 7.43425 17.1216C7.44163 17.1072 7.44416 17.0908 7.44145 17.0748C7.43875 17.0589 7.43096 17.0442 7.41925 17.0331C7.4115 17.0257 7.4023 17.0201 7.39225 17.0166C6.74599 16.7682 6.1201 16.4698 5.52025 16.1241C5.5035 16.1146 5.49104 16.099 5.48545 16.0806C5.47987 16.0621 5.48159 16.0423 5.49025 16.0251C5.49536 16.0139 5.50307 16.0041 5.51275 15.9966C5.63875 15.9021 5.76475 15.8031 5.88475 15.7041C5.89535 15.6955 5.90807 15.6901 5.92155 15.6882C5.93502 15.6864 5.94875 15.6882 5.96125 15.6936C9.88975 17.4876 14.1423 17.4876 18.0228 15.6936C18.0357 15.688 18.05 15.686 18.064 15.6878C18.078 15.6897 18.0912 15.6953 18.1023 15.7041C18.2223 15.8031 18.3483 15.9021 18.4743 15.9966C18.4845 16.004 18.4927 16.0139 18.4981 16.0253C18.5036 16.0367 18.5061 16.0493 18.5055 16.0619C18.5049 16.0746 18.5012 16.0869 18.4947 16.0977C18.4882 16.1085 18.4791 16.1176 18.4683 16.1241C17.8698 16.473 17.2431 16.771 16.5948 17.0151C16.5844 17.0188 16.575 17.0248 16.5672 17.0326C16.5595 17.0403 16.5535 17.0497 16.5498 17.0601C16.5463 17.0701 16.5449 17.0807 16.5457 17.0913C16.5464 17.1019 16.5494 17.1122 16.5543 17.1216C16.9143 17.8191 17.3268 18.4851 17.7798 19.1151C17.7889 19.1281 17.802 19.1379 17.8171 19.1431C17.8322 19.1482 17.8485 19.1484 17.8638 19.1436C20.022 18.4821 22.0516 17.4574 23.8653 16.1136C23.8743 16.1073 23.8819 16.099 23.8873 16.0894C23.8928 16.0798 23.896 16.0691 23.8968 16.0581C24.3978 10.8816 23.0583 6.38457 20.3478 2.39907C20.345 2.39249 20.3409 2.38655 20.3358 2.38164C20.3306 2.37673 20.3245 2.37296 20.3178 2.37057ZM8.02075 13.3311C6.83725 13.3311 5.86375 12.2451 5.86375 10.9131C5.86375 9.57957 6.81925 8.49357 8.02075 8.49357C9.23125 8.49357 10.1958 9.58857 10.1778 10.9131C10.1778 12.2451 9.22225 13.3311 8.02075 13.3311ZM15.9948 13.3311C14.8128 13.3311 13.8378 12.2451 13.8378 10.9131C13.8378 9.57957 14.7933 8.49357 15.9948 8.49357C17.2053 8.49357 18.1713 9.58857 18.1518 10.9131C18.1518 12.2451 17.2053 13.3311 15.9948 13.3311Z" fill="#0B0C0D"/>
</svg>
