<svg width="135" height="23" viewBox="0 0 135 23" fill="none" xmlns="http://www.w3.org/2000/svg">
<path fill-rule="evenodd" clip-rule="evenodd" d="M6.32881 2.77363L6.43284 19.2804C8.22528 22.5328 16.3168 20.8061 17.9322 16.8485C19.8049 12.2421 19.94 1.82531 6.33795 2.7791L6.32881 2.77363ZM0.0972781 1.22235V1.83628C0.0972781 1.83628 2.48842 1.47084 2.89363 3.01299C2.93379 4.02708 2.83338 20.1155 2.83338 20.1155C2.83338 20.1155 2.7111 21.5772 0.562735 21.5151C0.577531 21.6126 0.577531 21.7118 0.562735 21.8093C0.562735 21.8093 5.82321 21.6887 8.17418 22.1126C25.2333 25.1951 26.9089 1.50008 12.9199 1.35756L0.0917969 1.22782L0.0972781 1.22235Z" fill="#464F61"/>
<path fill-rule="evenodd" clip-rule="evenodd" d="M40.6241 2.18527C45.149 1.88013 49.0205 6.48647 49.0205 11.1495C49.1227 15.955 47.8815 20.554 43.1339 21.0017C39.1749 21.0017 35.141 19.1123 34.2083 11.6483C34.2083 6.9853 35.329 2.54522 40.6314 2.18527H40.6241ZM41.5569 0.820363C47.3759 0.820363 52.9576 4.32856 52.9576 11.186C52.9576 18.0434 47.5383 22.2843 41.7193 22.2843C35.9003 22.2843 30.4025 18.5514 30.4025 11.6866C30.4025 4.8219 35.7287 0.813058 41.5496 0.813058L41.5569 0.820363Z" fill="#464F61"/>
<path fill-rule="evenodd" clip-rule="evenodd" d="M60.4741 0.871518L59.8463 3.73107C59.8463 3.73107 59.6236 4.29933 59.8864 5.23303C60.1292 4.58438 60.1712 3.56845 61.6095 3.00203C63.0697 2.9399 67.3646 2.9399 67.3646 2.9399L67.2843 20.2251C67.2843 20.2251 67.2533 21.7471 65.1049 21.5443C65.0848 21.7983 65.0848 21.8586 65.0848 21.8586L73.8809 21.8184L73.87 21.4932C73.87 21.4932 71.132 21.8897 70.9933 20.2361C70.9732 19.3627 70.8308 2.9399 70.8308 2.9399L75.8978 3.06233C75.8978 3.06233 77.6392 3.10253 77.6191 5.23303C77.8619 5.37555 78.0042 5.17272 78.0243 4.92788C78.0444 4.68304 78.1265 2.02813 78.1265 2.02813C78.1265 2.02813 78.5518 1.11454 78.0042 1.03414C77.515 1.20402 77.0031 1.29949 76.4856 1.31735L61.792 1.29726C61.3825 1.07571 60.9358 0.931396 60.4741 0.871518Z" fill="#464F61"/>
<path fill-rule="evenodd" clip-rule="evenodd" d="M93.7601 6.42434L90.1095 15.838L97.1204 15.7576L93.7601 6.42434ZM94.2164 0.789299L86.3531 20.1447C86.3531 20.1447 85.5536 21.7563 83.3541 21.6065C83.3552 21.6943 83.3515 21.7821 83.3432 21.8696L90.5275 21.8805L90.5074 21.5041C90.5074 21.5041 88.1875 21.6868 88.4996 20.5302C88.7825 19.5563 89.624 17.223 89.624 17.223L97.6699 17.2431L99.2506 20.998C99.2506 20.998 99.4331 21.4438 98.6829 21.484V21.8038L105.856 21.9043L105.836 21.4384C105.836 21.4384 104.113 21.9244 103.162 20.607C102.452 19.4102 101.439 17.2194 101.439 17.2194C101.439 17.2194 102.534 17.3199 103.162 16.9343C104.188 16.5309 105.281 16.3245 106.384 16.3259C106.566 16.103 106.344 15.86 105.816 15.8179C105.289 15.7759 100.851 15.7777 100.851 15.7777L94.8279 0.856904C94.8279 0.856904 94.503 -0.116995 94.2292 0.780154L94.2164 0.789299Z" fill="#464F61"/>
<path fill-rule="evenodd" clip-rule="evenodd" d="M121.484 6.54678C121.484 6.54678 120.836 2.97645 120.999 2.12315C126.491 -1.10183 138.589 1.63712 130.766 12.836C129.956 13.85 126.794 17.2578 123.713 19.5308C125.958 19.5655 129.954 19.4138 130.89 19.3755C133.343 19.2786 133.263 16.346 134.099 16.3241L133.369 20.6362C133.369 20.6362 133.347 21.9153 131.868 21.7928C130.388 21.7727 120.134 21.833 120.134 21.833C120.134 21.833 119.161 21.8531 120.053 21.0821C121.525 19.6879 129.786 13.3238 129.528 6.65824C129.311 0.981162 122.611 0.162585 121.497 6.54678H121.484Z" fill="#464F61"/>
</svg>
