<svg width="35" height="35" viewBox="0 0 35 35" fill="none" xmlns="http://www.w3.org/2000/svg">
<rect width="35" height="35" rx="17.5" fill="black"/>
<path d="M17.524 0L1 25.245C1.5466 26.2199 2.18853 27.1424 2.91707 28L28 3.86858C25.0357 1.52121 21.3593 0.163606 17.524 0Z" fill="white"/>
<path d="M30.8888 7L5 31.1571C5.92357 31.8612 6.91939 32.4785 7.97297 33L35 17.1265C34.8414 13.4245 33.3986 9.8708 30.8888 7Z" fill="white"/>
<path d="M35 21L12 34.5251C14.4641 35.0672 17.0193 35.1461 19.5165 34.7572C22.0136 34.3684 24.4026 33.5196 26.5439 32.2604C28.6852 31.0012 30.5359 29.3569 31.9878 27.4235C33.4396 25.4902 34.4637 23.3065 35 21Z" fill="white"/>
</svg>
