<svg width="1780" height="408" viewBox="0 0 1780 408" fill="none" xmlns="http://www.w3.org/2000/svg">
<path d="M26.7099 210.603C27.4664 210.6 27.8946 211.47 27.4312 212.068L18.2542 223.909C18.0829 224.13 17.8195 224.259 17.54 224.26L-11.4559 224.374C-12.2124 224.377 -12.6406 223.508 -12.1772 222.91L-3.00019 211.069C-2.82896 210.848 -2.56553 210.718 -2.28601 210.717L26.7099 210.603Z" fill="#232931" fill-opacity="0.24"/>
<path d="M42.0647 189.657C42.8213 189.654 43.2495 190.524 42.786 191.122L33.609 202.963C33.4378 203.184 33.1744 203.313 32.8948 203.315L3.89897 203.428C3.14241 203.431 2.71421 202.562 3.17766 201.964L12.3547 190.123C12.5259 189.902 12.7893 189.773 13.0688 189.771L42.0647 189.657Z" fill="#232931" fill-opacity="0.24"/>
<path d="M-18.2558 182.63C-19.5602 182.635 -20.7896 183.241 -21.5887 184.272L-25.9694 189.925L4.59567 189.805L-22.5163 224.418L-65.8725 224.588C-66.6291 224.591 -67.0573 223.722 -66.5938 223.124L-57.4168 211.283C-57.2456 211.062 -56.9822 210.932 -56.7026 210.931L-29.2986 210.824L-23.6518 203.537L-51.9797 203.648C-52.7363 203.651 -53.1645 202.782 -52.701 202.184L-30.7248 173.828C-28.3847 170.808 -24.7845 169.035 -20.9644 169.02L57.1833 168.712C57.9399 168.71 58.3681 169.579 57.9046 170.177L48.7276 182.018C48.5564 182.239 48.293 182.368 48.0135 182.37L-18.2558 182.63Z" fill="#232931" fill-opacity="0.24"/>
<path d="M-26.4785 189.53L-27.2874 190.574L-25.9669 190.569L3.26892 190.454L-22.8309 223.775L-65.875 223.944C-66.095 223.945 -66.2194 223.692 -66.0847 223.519L-56.9077 211.678C-56.858 211.613 -56.7814 211.576 -56.7001 211.575L-29.296 211.468L-28.9819 211.466L-28.7894 211.218L-23.1427 203.931L-22.3338 202.888L-23.6543 202.893L-51.9822 203.004C-52.2022 203.005 -52.3266 202.752 -52.1919 202.578L-30.2157 174.222C-27.9971 171.359 -24.5837 169.678 -20.9619 169.664L57.1859 169.357C57.4058 169.356 57.5303 169.608 57.3955 169.782L48.2186 181.623C48.1688 181.687 48.0922 181.725 48.0109 181.725L-18.2583 181.986C-19.761 181.992 -21.1773 182.69 -22.0978 183.877L-26.4785 189.53ZM26.7124 211.247C26.9323 211.247 27.0568 211.499 26.9221 211.673L17.7451 223.514C17.6953 223.578 17.6187 223.616 17.5375 223.616L-11.4584 223.73C-11.6783 223.731 -11.8028 223.479 -11.6681 223.305L-2.4911 211.464C-2.44132 211.399 -2.36474 211.362 -2.28348 211.361L26.7124 211.247ZM42.0672 190.302C42.2872 190.301 42.4116 190.553 42.2769 190.727L33.0999 202.568C33.0501 202.632 32.9736 202.67 32.8923 202.67L3.89644 202.784C3.67652 202.785 3.55203 202.533 3.68676 202.359L12.8638 190.518C12.9135 190.454 12.9901 190.416 13.0714 190.416L42.0672 190.302Z" stroke="#464F61" stroke-opacity="0.33" stroke-width="1.28818"/>
<path d="M685.014 213.312C685.771 213.309 686.199 214.179 685.735 214.777L676.558 226.618C676.387 226.839 676.124 226.968 675.844 226.969L646.848 227.083C646.092 227.086 645.664 226.217 646.127 225.619L655.304 213.778C655.475 213.557 655.739 213.427 656.018 213.426L685.014 213.312Z" fill="#232931" fill-opacity="0.24"/>
<path d="M700.369 192.366C701.125 192.363 701.554 193.233 701.09 193.831L691.913 205.672C691.742 205.893 691.479 206.022 691.199 206.023L662.203 206.137C661.447 206.14 661.018 205.271 661.482 204.673L670.659 192.832C670.83 192.611 671.094 192.482 671.373 192.48L700.369 192.366Z" fill="#232931" fill-opacity="0.24"/>
<path d="M640.048 185.339C638.744 185.344 637.515 185.95 636.716 186.981L632.335 192.634L662.9 192.514L635.788 227.127L592.432 227.297C591.675 227.3 591.247 226.431 591.71 225.833L600.887 213.992C601.059 213.771 601.322 213.641 601.602 213.64L629.006 213.533L634.652 206.246L606.325 206.357C605.568 206.36 605.14 205.491 605.603 204.893L627.579 176.537C629.919 173.517 633.52 171.744 637.34 171.729L715.488 171.421C716.244 171.418 716.672 172.288 716.209 172.886L707.032 184.727C706.861 184.948 706.597 185.077 706.318 185.079L640.048 185.339Z" fill="#232931" fill-opacity="0.24"/>
<path d="M631.826 192.239L631.017 193.283L632.337 193.278L661.573 193.163L635.473 226.484L592.429 226.653C592.209 226.654 592.085 226.401 592.219 226.228L601.396 214.387C601.446 214.322 601.523 214.285 601.604 214.284L629.008 214.177L629.322 214.175L629.515 213.927L635.162 206.64L635.97 205.597L634.65 205.602L606.322 205.713C606.102 205.714 605.978 205.461 606.112 205.287L628.089 176.931C630.307 174.068 633.721 172.387 637.342 172.373L715.49 172.066C715.71 172.065 715.834 172.317 715.7 172.491L706.523 184.332C706.473 184.396 706.396 184.434 706.315 184.434L640.046 184.695C638.543 184.701 637.127 185.399 636.206 186.586L631.826 192.239ZM685.017 213.956C685.237 213.956 685.361 214.208 685.226 214.382L676.049 226.223C676 226.287 675.923 226.325 675.842 226.325L646.846 226.439C646.626 226.44 646.501 226.187 646.636 226.014L655.813 214.173C655.863 214.108 655.939 214.071 656.021 214.07L685.017 213.956ZM700.371 193.011C700.591 193.01 700.716 193.262 700.581 193.436L691.404 205.277C691.354 205.341 691.278 205.379 691.197 205.379L662.201 205.493C661.981 205.494 661.856 205.242 661.991 205.068L671.168 193.227C671.218 193.163 671.294 193.125 671.376 193.125L700.371 193.011Z" stroke="#464F61" stroke-opacity="0.33" stroke-width="1.28818"/>
<path d="M120.762 211.12C121.518 211.117 121.946 211.986 121.483 212.584L112.306 224.425C112.135 224.646 111.871 224.776 111.592 224.777L82.5959 224.891C81.8393 224.894 81.4111 224.025 81.8746 223.427L91.0516 211.586C91.2228 211.365 91.4862 211.235 91.7657 211.234L120.762 211.12Z" fill="#232931" fill-opacity="0.5"/>
<path d="M136.116 190.174C136.873 190.171 137.301 191.04 136.838 191.638L127.661 203.479C127.49 203.7 127.226 203.83 126.947 203.831L97.9507 203.945C97.1942 203.948 96.766 203.079 97.2294 202.481L106.406 190.64C106.578 190.419 106.841 190.289 107.121 190.288L136.116 190.174Z" fill="#232931" fill-opacity="0.5"/>
<path d="M75.796 183.147C74.4915 183.152 73.2621 183.757 72.4631 184.789L68.0824 190.442L98.6474 190.321L71.5354 224.935L28.1793 225.105C27.4227 225.108 26.9945 224.239 27.4579 223.641L36.6349 211.8C36.8062 211.579 37.0696 211.449 37.3491 211.448L64.7532 211.34L70.4 204.053L42.0721 204.165C41.3155 204.168 40.8873 203.298 41.3508 202.7L63.327 174.344C65.667 171.325 69.2673 169.551 73.0873 169.536L151.235 169.229C151.992 169.226 152.42 170.095 151.956 170.693L142.779 182.534C142.608 182.755 142.345 182.885 142.065 182.886L75.796 183.147Z" fill="#232931" fill-opacity="0.5"/>
<path d="M67.5732 190.047L66.7644 191.091L68.0849 191.086L97.3207 190.971L71.2208 224.292L28.1767 224.461C27.9568 224.462 27.8323 224.209 27.967 224.035L37.144 212.194C37.1938 212.13 37.2704 212.092 37.3516 212.092L64.7557 211.984L65.0699 211.983L65.2623 211.735L70.9091 204.448L71.718 203.404L70.3974 203.409L42.0695 203.521C41.8496 203.522 41.7251 203.269 41.8598 203.095L63.8361 174.739C66.0547 171.876 69.4681 170.195 73.0899 170.18L151.238 169.873C151.458 169.872 151.582 170.125 151.447 170.299L142.27 182.14C142.221 182.204 142.144 182.242 142.063 182.242L75.7935 182.503C74.2907 182.508 72.8745 183.206 71.954 184.394L67.5732 190.047ZM120.764 211.764C120.984 211.763 121.109 212.016 120.974 212.19L111.797 224.031C111.747 224.095 111.67 224.133 111.589 224.133L82.5934 224.247C82.3734 224.248 82.2489 223.995 82.3837 223.821L91.5607 211.98C91.6104 211.916 91.687 211.878 91.7683 211.878L120.764 211.764ZM136.119 190.818C136.339 190.817 136.463 191.07 136.329 191.244L127.152 203.085C127.102 203.149 127.025 203.187 126.944 203.187L97.9482 203.301C97.7283 203.302 97.6038 203.049 97.7385 202.875L106.916 191.034C106.965 190.97 107.042 190.932 107.123 190.932L136.119 190.818Z" stroke="#596680" stroke-opacity="0.33" stroke-width="1.28818"/>
<path d="M779.066 213.829C779.822 213.826 780.251 214.695 779.787 215.293L770.61 227.134C770.439 227.355 770.175 227.485 769.896 227.486L740.9 227.6C740.144 227.603 739.715 226.734 740.179 226.136L749.356 214.295C749.527 214.074 749.79 213.944 750.07 213.943L779.066 213.829Z" fill="#232931" fill-opacity="0.24"/>
<path d="M794.421 192.883C795.177 192.88 795.605 193.749 795.142 194.347L785.965 206.188C785.794 206.409 785.53 206.539 785.251 206.54L756.255 206.654C755.498 206.657 755.07 205.788 755.534 205.19L764.711 193.349C764.882 193.128 765.145 192.998 765.425 192.997L794.421 192.883Z" fill="#232931" fill-opacity="0.24"/>
<path d="M734.1 185.856C732.796 185.861 731.566 186.466 730.767 187.498L726.387 193.151L756.952 193.03L729.84 227.643L686.483 227.814C685.727 227.817 685.299 226.948 685.762 226.35L694.939 214.509C695.11 214.288 695.374 214.158 695.653 214.157L723.057 214.049L728.704 206.762L700.376 206.874C699.62 206.877 699.191 206.007 699.655 205.409L721.631 177.053C723.971 174.034 727.571 172.26 731.392 172.245L809.539 171.938C810.296 171.935 810.724 172.804 810.261 173.402L801.084 185.243C800.912 185.464 800.649 185.594 800.369 185.595L734.1 185.856Z" fill="#232931" fill-opacity="0.24"/>
<path d="M725.877 192.756L725.069 193.8L726.389 193.795L755.625 193.68L729.525 227.001L686.481 227.17C686.261 227.171 686.137 226.918 686.271 226.744L695.448 214.903C695.498 214.839 695.575 214.801 695.656 214.801L723.06 214.693L723.374 214.692L723.567 214.444L729.213 207.157L730.022 206.113L728.702 206.118L700.374 206.23C700.154 206.231 700.029 205.978 700.164 205.804L722.14 177.448C724.359 174.585 727.772 172.904 731.394 172.889L809.542 172.582C809.762 172.581 809.886 172.834 809.752 173.008L800.575 184.849C800.525 184.913 800.448 184.951 800.367 184.951L734.098 185.212C732.595 185.217 731.179 185.915 730.258 187.103L725.877 192.756ZM779.068 214.473C779.288 214.472 779.413 214.725 779.278 214.899L770.101 226.74C770.051 226.804 769.975 226.842 769.893 226.842L740.898 226.956C740.678 226.957 740.553 226.704 740.688 226.53L749.865 214.689C749.915 214.625 749.991 214.587 750.072 214.587L779.068 214.473ZM794.423 193.527C794.643 193.526 794.768 193.779 794.633 193.953L785.456 205.794C785.406 205.858 785.33 205.896 785.248 205.896L756.252 206.01C756.032 206.011 755.908 205.758 756.043 205.584L765.22 193.743C765.269 193.679 765.346 193.641 765.427 193.641L794.423 193.527Z" stroke="#464F61" stroke-opacity="0.33" stroke-width="1.28818"/>
<path d="M214.815 211.637C215.572 211.634 216 212.503 215.537 213.101L206.36 224.942C206.188 225.163 205.925 225.293 205.645 225.294L176.65 225.408C175.893 225.411 175.465 224.542 175.928 223.944L185.105 212.103C185.277 211.882 185.54 211.752 185.819 211.751L214.815 211.637Z" fill="#232931" fill-opacity="0.24"/>
<path d="M230.17 190.691C230.927 190.688 231.355 191.557 230.891 192.155L221.714 203.996C221.543 204.217 221.28 204.347 221 204.348L192.004 204.462C191.248 204.465 190.82 203.596 191.283 202.998L200.46 191.157C200.631 190.936 200.895 190.806 201.174 190.805L230.17 190.691Z" fill="#232931" fill-opacity="0.24"/>
<path d="M169.85 183.664C168.545 183.669 167.316 184.275 166.517 185.306L162.136 190.959L192.701 190.838L165.589 225.452L122.233 225.622C121.476 225.625 121.048 224.756 121.512 224.158L130.689 212.317C130.86 212.096 131.123 211.966 131.403 211.965L158.807 211.857L164.454 204.571L136.126 204.682C135.369 204.685 134.941 203.816 135.404 203.218L157.381 174.861C159.721 171.842 163.321 170.068 167.141 170.053L245.289 169.746C246.045 169.743 246.474 170.612 246.01 171.21L236.833 183.051C236.662 183.272 236.398 183.402 236.119 183.403L169.85 183.664Z" fill="#232931" fill-opacity="0.24"/>
<path d="M161.627 190.564L160.818 191.608L162.139 191.603L191.374 191.488L165.275 224.809L122.23 224.978C122.011 224.979 121.886 224.726 122.021 224.552L131.198 212.711C131.248 212.647 131.324 212.609 131.405 212.609L158.809 212.501L159.124 212.5L159.316 212.252L164.963 204.965L165.772 203.921L164.451 203.926L136.123 204.038C135.903 204.039 135.779 203.786 135.914 203.612L157.89 175.256C160.108 172.393 163.522 170.712 167.144 170.697L245.291 170.39C245.511 170.389 245.636 170.642 245.501 170.816L236.324 182.657C236.274 182.721 236.198 182.759 236.116 182.759L169.847 183.02C168.344 183.026 166.928 183.723 166.008 184.911L161.627 190.564ZM214.818 212.281C215.038 212.28 215.162 212.533 215.028 212.707L205.851 224.548C205.801 224.612 205.724 224.65 205.643 224.65L176.647 224.764C176.427 224.765 176.303 224.512 176.437 224.338L185.614 212.497C185.664 212.433 185.741 212.395 185.822 212.395L214.818 212.281ZM230.173 191.335C230.393 191.334 230.517 191.587 230.382 191.761L221.205 203.602C221.156 203.666 221.079 203.704 220.998 203.704L192.002 203.818C191.782 203.819 191.658 203.566 191.792 203.392L200.969 191.551C201.019 191.487 201.096 191.45 201.177 191.449L230.173 191.335Z" stroke="#464F61" stroke-opacity="0.33" stroke-width="1.28818"/>
<path d="M873.118 214.346C873.874 214.343 874.302 215.212 873.839 215.81L864.662 227.651C864.491 227.872 864.227 228.002 863.948 228.003L834.952 228.117C834.195 228.12 833.767 227.251 834.231 226.653L843.408 214.812C843.579 214.591 843.842 214.461 844.122 214.46L873.118 214.346Z" fill="#232931" fill-opacity="0.24"/>
<path d="M888.472 193.4C889.229 193.397 889.657 194.266 889.194 194.864L880.017 206.705C879.846 206.926 879.582 207.056 879.303 207.057L850.307 207.171C849.55 207.174 849.122 206.305 849.585 205.707L858.762 193.866C858.934 193.645 859.197 193.515 859.477 193.514L888.472 193.4Z" fill="#232931" fill-opacity="0.24"/>
<path d="M828.152 186.373C826.847 186.378 825.618 186.984 824.819 188.015L820.438 193.668L851.003 193.547L823.891 228.161L780.535 228.331C779.779 228.334 779.35 227.465 779.814 226.867L788.991 215.026C789.162 214.805 789.426 214.675 789.705 214.674L817.109 214.566L822.756 207.279L794.428 207.391C793.671 207.394 793.243 206.525 793.707 205.927L815.683 177.57C818.023 174.551 821.623 172.777 825.443 172.762L903.591 172.455C904.348 172.452 904.776 173.321 904.312 173.919L895.135 185.76C894.964 185.981 894.701 186.111 894.421 186.112L828.152 186.373Z" fill="#232931" fill-opacity="0.24"/>
<path d="M819.929 193.273L819.12 194.317L820.441 194.312L849.677 194.197L823.577 227.518L780.533 227.687C780.313 227.688 780.188 227.435 780.323 227.261L789.5 215.42C789.55 215.356 789.626 215.318 789.708 215.318L817.112 215.21L817.426 215.209L817.618 214.961L823.265 207.674L824.074 206.63L822.753 206.635L794.425 206.747C794.206 206.748 794.081 206.495 794.216 206.321L816.192 177.965C818.411 175.102 821.824 173.421 825.446 173.406L903.594 173.099C903.814 173.098 903.938 173.351 903.803 173.525L894.626 185.366C894.576 185.43 894.5 185.468 894.419 185.468L828.149 185.729C826.647 185.735 825.23 186.432 824.31 187.62L819.929 193.273ZM873.12 214.99C873.34 214.989 873.465 215.242 873.33 215.416L864.153 227.257C864.103 227.321 864.026 227.359 863.945 227.359L834.949 227.473C834.729 227.474 834.605 227.221 834.74 227.047L843.917 215.206C843.966 215.142 844.043 215.104 844.124 215.104L873.12 214.99ZM888.475 194.044C888.695 194.043 888.819 194.296 888.685 194.47L879.508 206.311C879.458 206.375 879.381 206.413 879.3 206.413L850.304 206.527C850.084 206.528 849.96 206.275 850.094 206.101L859.271 194.26C859.321 194.196 859.398 194.159 859.479 194.158L888.475 194.044Z" stroke="#464F61" stroke-opacity="0.33" stroke-width="1.28818"/>
<path d="M308.867 212.154C309.624 212.151 310.052 213.02 309.588 213.618L300.411 225.459C300.24 225.68 299.977 225.81 299.697 225.811L270.701 225.925C269.945 225.928 269.517 225.058 269.98 224.46L279.157 212.619C279.328 212.399 279.592 212.269 279.871 212.268L308.867 212.154Z" fill="#232931" fill-opacity="0.24"/>
<path d="M324.222 191.208C324.978 191.205 325.407 192.074 324.943 192.672L315.766 204.513C315.595 204.734 315.332 204.864 315.052 204.865L286.056 204.979C285.3 204.982 284.871 204.112 285.335 203.514L294.512 191.674C294.683 191.453 294.947 191.323 295.226 191.322L324.222 191.208Z" fill="#232931" fill-opacity="0.24"/>
<path d="M263.901 184.18C262.597 184.185 261.368 184.791 260.569 185.822L256.188 191.475L286.753 191.355L259.641 225.968L216.285 226.139C215.528 226.142 215.1 225.272 215.563 224.674L224.74 212.833C224.912 212.612 225.175 212.483 225.455 212.482L252.859 212.374L258.505 205.087L230.178 205.198C229.421 205.201 228.993 204.332 229.456 203.734L251.432 175.378C253.773 172.358 257.373 170.585 261.193 170.57L339.341 170.263C340.097 170.26 340.525 171.129 340.062 171.727L330.885 183.568C330.714 183.789 330.45 183.919 330.171 183.92L263.901 184.18Z" fill="#232931" fill-opacity="0.24"/>
<path d="M255.679 191.081L254.87 192.124L256.19 192.119L285.426 192.004L259.326 225.325L216.282 225.495C216.062 225.495 215.938 225.243 216.073 225.069L225.25 213.228C225.299 213.164 225.376 213.126 225.457 213.126L252.861 213.018L253.175 213.017L253.368 212.768L259.015 205.482L259.823 204.438L258.503 204.443L230.175 204.554C229.955 204.555 229.831 204.303 229.965 204.129L251.942 175.772C254.16 172.91 257.574 171.228 261.195 171.214L339.343 170.907C339.563 170.906 339.687 171.159 339.553 171.333L330.376 183.173C330.326 183.238 330.249 183.275 330.168 183.276L263.899 183.536C262.396 183.542 260.98 184.24 260.059 185.428L255.679 191.081ZM308.87 212.798C309.09 212.797 309.214 213.05 309.079 213.223L299.902 225.064C299.853 225.129 299.776 225.166 299.695 225.167L270.699 225.281C270.479 225.282 270.354 225.029 270.489 224.855L279.666 213.014C279.716 212.95 279.792 212.912 279.874 212.912L308.87 212.798ZM324.224 191.852C324.444 191.851 324.569 192.104 324.434 192.277L315.257 204.118C315.207 204.183 315.131 204.22 315.05 204.221L286.054 204.335C285.834 204.336 285.709 204.083 285.844 203.909L295.021 192.068C295.071 192.004 295.147 191.966 295.229 191.966L324.224 191.852Z" stroke="#464F61" stroke-opacity="0.33" stroke-width="1.28818"/>
<path d="M402.921 212.671C403.678 212.668 404.106 213.537 403.643 214.135L394.466 225.976C394.294 226.197 394.031 226.327 393.751 226.328L364.756 226.442C363.999 226.445 363.571 225.576 364.034 224.978L373.211 213.137C373.382 212.916 373.646 212.786 373.925 212.785L402.921 212.671Z" fill="#232931" fill-opacity="0.24"/>
<path d="M418.276 191.725C419.033 191.722 419.461 192.591 418.997 193.189L409.82 205.03C409.649 205.251 409.386 205.381 409.106 205.382L380.11 205.496C379.354 205.499 378.926 204.63 379.389 204.032L388.566 192.191C388.737 191.97 389.001 191.84 389.28 191.839L418.276 191.725Z" fill="#232931" fill-opacity="0.24"/>
<path d="M357.956 184.697C356.651 184.703 355.422 185.308 354.623 186.339L350.242 191.992L380.807 191.872L353.695 226.485L310.339 226.656C309.582 226.659 309.154 225.789 309.618 225.191L318.795 213.35C318.966 213.13 319.229 213 319.509 212.999L346.913 212.891L352.56 205.604L324.232 205.716C323.475 205.719 323.047 204.849 323.51 204.251L345.487 175.895C347.827 172.876 351.427 171.102 355.247 171.087L433.395 170.78C434.151 170.777 434.58 171.646 434.116 172.244L424.939 184.085C424.768 184.306 424.504 184.436 424.225 184.437L357.956 184.697Z" fill="#232931" fill-opacity="0.24"/>
<path d="M349.733 191.598L348.924 192.642L350.245 192.636L379.48 192.521L353.38 225.842L310.336 226.012C310.116 226.013 309.992 225.76 310.127 225.586L319.304 213.745C319.353 213.681 319.43 213.643 319.511 213.643L346.915 213.535L347.23 213.534L347.422 213.285L353.069 205.999L353.878 204.955L352.557 204.96L324.229 205.071C324.009 205.072 323.885 204.82 324.02 204.646L345.996 176.29C348.214 173.427 351.628 171.745 355.25 171.731L433.397 171.424C433.617 171.423 433.742 171.676 433.607 171.85L424.43 183.691C424.38 183.755 424.304 183.793 424.222 183.793L357.953 184.053C356.45 184.059 355.034 184.757 354.114 185.945L349.733 191.598ZM402.924 213.315C403.144 213.314 403.268 213.567 403.133 213.741L393.957 225.581C393.907 225.646 393.83 225.683 393.749 225.684L364.753 225.798C364.533 225.799 364.409 225.546 364.543 225.372L373.72 213.531C373.77 213.467 373.847 213.429 373.928 213.429L402.924 213.315ZM418.279 192.369C418.499 192.368 418.623 192.621 418.488 192.795L409.311 204.636C409.262 204.7 409.185 204.737 409.104 204.738L380.108 204.852C379.888 204.853 379.763 204.6 379.898 204.426L389.075 192.585C389.125 192.521 389.202 192.483 389.283 192.483L418.279 192.369Z" stroke="#464F61" stroke-opacity="0.33" stroke-width="1.28818"/>
<path d="M496.973 213.187C497.729 213.184 498.157 214.053 497.694 214.651L488.517 226.492C488.346 226.713 488.082 226.843 487.803 226.844L458.807 226.958C458.05 226.961 457.622 226.092 458.086 225.494L467.263 213.653C467.434 213.432 467.697 213.302 467.977 213.301L496.973 213.187Z" fill="#232931" fill-opacity="0.5"/>
<path d="M512.327 192.241C513.084 192.238 513.512 193.107 513.049 193.705L503.872 205.546C503.7 205.767 503.437 205.897 503.158 205.898L474.162 206.012C473.405 206.015 472.977 205.146 473.44 204.548L482.617 192.707C482.789 192.486 483.052 192.356 483.332 192.355L512.327 192.241Z" fill="#232931" fill-opacity="0.5"/>
<path d="M452.007 185.214C450.702 185.219 449.473 185.824 448.674 186.855L444.293 192.508L474.858 192.388L447.746 227.001L404.39 227.172C403.634 227.175 403.205 226.306 403.669 225.708L412.846 213.867C413.017 213.646 413.281 213.516 413.56 213.515L440.964 213.407L446.611 206.12L418.283 206.232C417.526 206.235 417.098 205.365 417.562 204.767L439.538 176.411C441.878 173.392 445.478 171.618 449.298 171.603L527.446 171.296C528.203 171.293 528.631 172.162 528.167 172.76L518.99 184.601C518.819 184.822 518.556 184.952 518.276 184.953L452.007 185.214Z" fill="#232931" fill-opacity="0.5"/>
<path d="M443.784 192.114L442.975 193.158L444.296 193.153L473.532 193.038L447.432 226.359L404.388 226.528C404.168 226.529 404.043 226.276 404.178 226.102L413.355 214.261C413.405 214.197 413.481 214.159 413.563 214.159L440.967 214.051L441.281 214.05L441.473 213.802L447.12 206.515L447.929 205.471L446.608 205.476L418.28 205.588C418.061 205.588 417.936 205.336 418.071 205.162L440.047 176.806C442.266 173.943 445.679 172.262 449.301 172.247L527.449 171.94C527.668 171.939 527.793 172.192 527.658 172.366L518.481 184.207C518.431 184.271 518.355 184.309 518.274 184.309L452.004 184.569C450.502 184.575 449.085 185.273 448.165 186.461L443.784 192.114ZM496.975 213.831C497.195 213.83 497.319 214.083 497.185 214.257L488.008 226.098C487.958 226.162 487.881 226.2 487.8 226.2L458.804 226.314C458.584 226.315 458.46 226.062 458.595 225.888L467.772 214.047C467.821 213.983 467.898 213.945 467.979 213.945L496.975 213.831ZM512.33 192.885C512.55 192.884 512.674 193.137 512.54 193.311L503.363 205.152C503.313 205.216 503.236 205.254 503.155 205.254L474.159 205.368C473.939 205.369 473.815 205.116 473.949 204.942L483.126 193.101C483.176 193.037 483.253 192.999 483.334 192.999L512.33 192.885Z" stroke="#596680" stroke-opacity="0.33" stroke-width="1.28818"/>
<path d="M591.024 213.704C591.781 213.701 592.209 214.57 591.746 215.168L582.569 227.009C582.397 227.23 582.134 227.36 581.854 227.361L552.859 227.475C552.102 227.478 551.674 226.609 552.137 226.011L561.314 214.17C561.485 213.949 561.749 213.819 562.028 213.818L591.024 213.704Z" fill="#232931" fill-opacity="0.24"/>
<path d="M606.379 192.758C607.136 192.755 607.564 193.624 607.1 194.222L597.923 206.063C597.752 206.284 597.489 206.414 597.209 206.415L568.213 206.529C567.457 206.532 567.029 205.663 567.492 205.065L576.669 193.224C576.84 193.003 577.104 192.873 577.383 192.872L606.379 192.758Z" fill="#232931" fill-opacity="0.24"/>
<path d="M546.059 185.731C544.754 185.736 543.525 186.341 542.726 187.373L538.345 193.026L568.91 192.905L541.798 227.518L498.442 227.689C497.685 227.692 497.257 226.823 497.721 226.225L506.898 214.384C507.069 214.163 507.332 214.033 507.612 214.032L535.016 213.924L540.663 206.637L512.335 206.749C511.578 206.752 511.15 205.882 511.613 205.284L533.59 176.928C535.93 173.909 539.53 172.135 543.35 172.12L621.498 171.813C622.254 171.81 622.683 172.679 622.219 173.277L613.042 185.118C612.871 185.339 612.607 185.469 612.328 185.47L546.059 185.731Z" fill="#232931" fill-opacity="0.24"/>
<path d="M537.836 192.631L537.027 193.675L538.348 193.67L567.583 193.555L541.484 226.876L498.439 227.045C498.219 227.046 498.095 226.793 498.23 226.619L507.407 214.778C507.457 214.714 507.533 214.676 507.614 214.676L535.018 214.568L535.333 214.567L535.525 214.319L541.172 207.032L541.981 205.988L540.66 205.993L512.332 206.105C512.112 206.106 511.988 205.853 512.123 205.679L534.099 177.323C536.317 174.46 539.731 172.779 543.353 172.764L621.5 172.457C621.72 172.456 621.845 172.709 621.71 172.883L612.533 184.724C612.483 184.788 612.407 184.826 612.325 184.826L546.056 185.087C544.553 185.092 543.137 185.79 542.217 186.978L537.836 192.631ZM591.027 214.348C591.247 214.347 591.371 214.6 591.237 214.774L582.06 226.615C582.01 226.679 581.933 226.717 581.852 226.717L552.856 226.831C552.636 226.832 552.512 226.579 552.646 226.405L561.823 214.564C561.873 214.5 561.95 214.462 562.031 214.462L591.027 214.348ZM606.382 193.402C606.602 193.401 606.726 193.654 606.591 193.828L597.414 205.669C597.365 205.733 597.288 205.771 597.207 205.771L568.211 205.885C567.991 205.886 567.866 205.633 568.001 205.459L577.178 193.618C577.228 193.554 577.305 193.516 577.386 193.516L606.382 193.402Z" stroke="#464F61" stroke-opacity="0.33" stroke-width="1.28818"/>
<g filter="url(#filter0_f_5_45719)">
<circle cx="445.878" cy="178.263" r="7.50565" transform="rotate(-0.225246 445.878 178.263)" fill="#FBFEFF"/>
</g>
<g filter="url(#filter1_f_5_45719)">
<circle cx="447.908" cy="181.899" r="15.8365" transform="rotate(-0.225246 447.908 181.899)" fill="#FBFEFF"/>
</g>
<g filter="url(#filter2_f_5_45719)">
<circle cx="444.931" cy="175.452" r="2.81462" transform="rotate(-0.225246 444.931 175.452)" fill="#FBFEFF"/>
</g>
<g filter="url(#filter3_f_5_45719)">
<circle cx="445.906" cy="175.968" r="5.9387" transform="rotate(-0.225246 445.906 175.968)" fill="#FBFEFF"/>
</g>
<g filter="url(#filter4_f_5_45719)">
<circle cx="107.789" cy="218.356" r="7.50565" transform="rotate(-0.225246 107.789 218.356)" fill="#FBFEFF"/>
</g>
<g filter="url(#filter5_f_5_45719)">
<circle cx="109.82" cy="221.992" r="15.8365" transform="rotate(-0.225246 109.82 221.992)" fill="#FBFEFF"/>
</g>
<g filter="url(#filter6_f_5_45719)">
<circle cx="106.842" cy="215.546" r="2.81462" transform="rotate(-0.225246 106.842 215.546)" fill="#FBFEFF"/>
</g>
<g filter="url(#filter7_f_5_45719)">
<circle cx="107.817" cy="216.061" r="5.9387" transform="rotate(-0.225246 107.817 216.061)" fill="#FBFEFF"/>
</g>
<g filter="url(#filter8_f_5_45719)">
<circle cx="728.152" cy="225.954" r="4.85994" transform="rotate(-0.225246 728.152 225.954)" fill="#FBFEFF"/>
</g>
<g filter="url(#filter9_f_5_45719)">
<circle cx="729.466" cy="228.308" r="10.2542" transform="rotate(-0.225246 729.466 228.308)" fill="#FBFEFF"/>
</g>
<g filter="url(#filter10_f_5_45719)">
<circle cx="727.538" cy="224.134" r="1.82248" transform="rotate(-0.225246 727.538 224.134)" fill="#FBFEFF"/>
</g>
<g filter="url(#filter11_f_5_45719)">
<circle cx="728.171" cy="224.468" r="3.84533" transform="rotate(-0.225246 728.171 224.468)" fill="#FBFEFF"/>
</g>
<path d="M968.983 214.001C969.74 213.998 970.168 214.867 969.705 215.465L960.528 227.306C960.356 227.527 960.093 227.657 959.813 227.658L930.818 227.772C930.061 227.775 929.633 226.906 930.096 226.308L939.273 214.467C939.444 214.246 939.708 214.116 939.987 214.115L968.983 214.001Z" fill="#232931" fill-opacity="0.24"/>
<path d="M984.338 193.055C985.095 193.052 985.523 193.921 985.059 194.519L975.882 206.36C975.711 206.581 975.448 206.711 975.168 206.712L946.172 206.826C945.416 206.829 944.988 205.96 945.451 205.362L954.628 193.521C954.799 193.3 955.063 193.17 955.342 193.169L984.338 193.055Z" fill="#232931" fill-opacity="0.24"/>
<path d="M924.018 186.028C922.713 186.033 921.484 186.638 920.685 187.669L916.304 193.322L946.869 193.202L919.757 227.815L876.401 227.986C875.644 227.989 875.216 227.119 875.68 226.522L884.857 214.681C885.028 214.46 885.291 214.33 885.571 214.329L912.975 214.221L918.622 206.934L890.294 207.046C889.537 207.049 889.109 206.179 889.572 205.581L911.549 177.225C913.889 174.206 917.489 172.432 921.309 172.417L999.457 172.11C1000.21 172.107 1000.64 172.976 1000.18 173.574L991.001 185.415C990.83 185.636 990.566 185.766 990.287 185.767L924.018 186.028Z" fill="#232931" fill-opacity="0.24"/>
<path d="M915.795 192.928L914.986 193.972L916.307 193.966L945.542 193.852L919.442 227.173L876.398 227.342C876.178 227.343 876.054 227.09 876.189 226.916L885.366 215.075C885.415 215.011 885.492 214.973 885.573 214.973L912.977 214.865L913.292 214.864L913.484 214.616L919.131 207.329L919.94 206.285L918.619 206.29L890.291 206.402C890.071 206.402 889.947 206.15 890.082 205.976L912.058 177.62C914.276 174.757 917.69 173.075 921.312 173.061L999.459 172.754C999.679 172.753 999.804 173.006 999.669 173.18L990.492 185.021C990.442 185.085 990.366 185.123 990.284 185.123L924.015 185.383C922.512 185.389 921.096 186.087 920.176 187.275L915.795 192.928ZM968.986 214.645C969.206 214.644 969.33 214.897 969.196 215.071L960.019 226.912C959.969 226.976 959.892 227.013 959.811 227.014L930.815 227.128C930.595 227.129 930.471 226.876 930.605 226.702L939.782 214.861C939.832 214.797 939.909 214.759 939.99 214.759L968.986 214.645ZM984.341 193.699C984.561 193.698 984.685 193.951 984.55 194.125L975.373 205.966C975.324 206.03 975.247 206.068 975.166 206.068L946.17 206.182C945.95 206.183 945.825 205.93 945.96 205.756L955.137 193.915C955.187 193.851 955.264 193.813 955.345 193.813L984.341 193.699Z" stroke="#464F61" stroke-opacity="0.33" stroke-width="1.28818"/>
<path d="M1627.29 216.71C1628.04 216.707 1628.47 217.577 1628.01 218.175L1618.83 230.016C1618.66 230.237 1618.4 230.366 1618.12 230.367L1589.12 230.481C1588.37 230.484 1587.94 229.615 1588.4 229.017L1597.58 217.176C1597.75 216.955 1598.01 216.825 1598.29 216.824L1627.29 216.71Z" fill="#232931" fill-opacity="0.24"/>
<path d="M1642.64 195.764C1643.4 195.761 1643.83 196.631 1643.36 197.229L1634.19 209.07C1634.02 209.291 1633.75 209.42 1633.47 209.421L1604.48 209.535C1603.72 209.538 1603.29 208.669 1603.76 208.071L1612.93 196.23C1613.1 196.009 1613.37 195.879 1613.65 195.878L1642.64 195.764Z" fill="#232931" fill-opacity="0.24"/>
<path d="M1582.32 188.737C1581.02 188.742 1579.79 189.348 1578.99 190.379L1574.61 196.032L1605.17 195.912L1578.06 230.525L1534.71 230.695C1533.95 230.698 1533.52 229.829 1533.98 229.231L1543.16 217.39C1543.33 217.169 1543.6 217.039 1543.87 217.038L1571.28 216.93L1576.93 209.644L1548.6 209.755C1547.84 209.758 1547.41 208.889 1547.88 208.291L1569.85 179.935C1572.19 176.915 1575.79 175.142 1579.61 175.127L1657.76 174.819C1658.52 174.816 1658.95 175.686 1658.48 176.284L1649.31 188.125C1649.13 188.346 1648.87 188.475 1648.59 188.476L1582.32 188.737Z" fill="#232931" fill-opacity="0.24"/>
<path d="M1574.1 195.637L1573.29 196.681L1574.61 196.676L1603.85 196.561L1577.75 229.882L1534.7 230.051C1534.48 230.052 1534.36 229.799 1534.49 229.626L1543.67 217.785C1543.72 217.72 1543.8 217.683 1543.88 217.682L1571.28 217.575L1571.6 217.573L1571.79 217.325L1577.43 210.038L1578.24 208.994L1576.92 209L1548.6 209.111C1548.38 209.112 1548.25 208.859 1548.39 208.685L1570.36 180.329C1572.58 177.466 1575.99 175.785 1579.62 175.771L1657.76 175.463C1657.98 175.463 1658.11 175.715 1657.97 175.889L1648.8 187.73C1648.75 187.794 1648.67 187.832 1648.59 187.832L1582.32 188.093C1580.82 188.099 1579.4 188.797 1578.48 189.984L1574.1 195.637ZM1627.29 217.354C1627.51 217.354 1627.63 217.606 1627.5 217.78L1618.32 229.621C1618.27 229.685 1618.2 229.723 1618.12 229.723L1589.12 229.837C1588.9 229.838 1588.77 229.585 1588.91 229.412L1598.09 217.571C1598.14 217.506 1598.21 217.469 1598.29 217.468L1627.29 217.354ZM1642.64 196.408C1642.86 196.408 1642.99 196.66 1642.85 196.834L1633.68 208.675C1633.63 208.739 1633.55 208.777 1633.47 208.777L1604.47 208.891C1604.25 208.892 1604.13 208.64 1604.26 208.466L1613.44 196.625C1613.49 196.56 1613.57 196.523 1613.65 196.522L1642.64 196.408Z" stroke="#464F61" stroke-opacity="0.33" stroke-width="1.28818"/>
<path d="M1063.04 214.517C1063.79 214.514 1064.22 215.384 1063.76 215.982L1054.58 227.823C1054.41 228.044 1054.14 228.173 1053.87 228.175L1024.87 228.288C1024.11 228.291 1023.68 227.422 1024.15 226.824L1033.33 214.983C1033.5 214.762 1033.76 214.633 1034.04 214.631L1063.04 214.517Z" fill="#232931" fill-opacity="0.5"/>
<path d="M1078.39 193.572C1079.15 193.569 1079.57 194.438 1079.11 195.036L1069.93 206.877C1069.76 207.098 1069.5 207.227 1069.22 207.229L1040.22 207.343C1039.47 207.346 1039.04 206.476 1039.5 205.878L1048.68 194.037C1048.85 193.816 1049.11 193.687 1049.39 193.685L1078.39 193.572Z" fill="#232931" fill-opacity="0.5"/>
<path d="M1018.07 186.544C1016.76 186.549 1015.54 187.155 1014.74 188.186L1010.36 193.839L1040.92 193.719L1013.81 228.332L970.453 228.502C969.696 228.505 969.268 227.636 969.731 227.038L978.908 215.197C979.08 214.976 979.343 214.846 979.623 214.845L1007.03 214.738L1012.67 207.451L984.346 207.562C983.589 207.565 983.161 206.696 983.624 206.098L1005.6 177.742C1007.94 174.722 1011.54 172.949 1015.36 172.934L1093.51 172.627C1094.27 172.624 1094.69 173.493 1094.23 174.091L1085.05 185.932C1084.88 186.153 1084.62 186.283 1084.34 186.284L1018.07 186.544Z" fill="#232931" fill-opacity="0.5"/>
<path d="M1009.85 193.444L1009.04 194.488L1010.36 194.483L1039.59 194.368L1013.49 227.689L970.45 227.858C970.23 227.859 970.106 227.607 970.24 227.433L979.417 215.592C979.467 215.527 979.544 215.49 979.625 215.489L1007.03 215.382L1007.34 215.38L1007.54 215.132L1013.18 207.845L1013.99 206.802L1012.67 206.807L984.343 206.918C984.123 206.919 983.999 206.666 984.133 206.492L1006.11 178.136C1008.33 175.274 1011.74 173.592 1015.36 173.578L1093.51 173.271C1093.73 173.27 1093.86 173.522 1093.72 173.696L1084.54 185.537C1084.49 185.601 1084.42 185.639 1084.34 185.64L1018.07 185.9C1016.56 185.906 1015.15 186.604 1014.23 187.791L1009.85 193.444ZM1063.04 215.162C1063.26 215.161 1063.38 215.413 1063.25 215.587L1054.07 227.428C1054.02 227.492 1053.94 227.53 1053.86 227.53L1024.87 227.644C1024.65 227.645 1024.52 227.393 1024.66 227.219L1033.83 215.378C1033.88 215.314 1033.96 215.276 1034.04 215.276L1063.04 215.162ZM1078.39 194.216C1078.61 194.215 1078.74 194.467 1078.6 194.641L1069.43 206.482C1069.38 206.546 1069.3 206.584 1069.22 206.584L1040.22 206.698C1040 206.699 1039.88 206.447 1040.01 206.273L1049.19 194.432C1049.24 194.368 1049.32 194.33 1049.4 194.33L1078.39 194.216Z" stroke="#596680" stroke-opacity="0.33" stroke-width="1.28818"/>
<path d="M1721.34 217.227C1722.1 217.224 1722.52 218.093 1722.06 218.691L1712.88 230.532C1712.71 230.753 1712.45 230.883 1712.17 230.884L1683.17 230.998C1682.42 231.001 1681.99 230.132 1682.45 229.534L1691.63 217.693C1691.8 217.472 1692.06 217.342 1692.34 217.341L1721.34 217.227Z" fill="#232931" fill-opacity="0.24"/>
<path d="M1736.69 196.281C1737.45 196.278 1737.88 197.147 1737.42 197.745L1728.24 209.586C1728.07 209.807 1727.8 209.937 1727.52 209.938L1698.53 210.052C1697.77 210.055 1697.34 209.186 1697.81 208.588L1706.98 196.747C1707.16 196.526 1707.42 196.396 1707.7 196.395L1736.69 196.281Z" fill="#232931" fill-opacity="0.24"/>
<path d="M1676.37 189.254C1675.07 189.259 1673.84 189.864 1673.04 190.895L1668.66 196.548L1699.23 196.428L1672.11 231.041L1628.76 231.212C1628 231.215 1627.57 230.346 1628.04 229.748L1637.21 217.907C1637.38 217.686 1637.65 217.556 1637.93 217.555L1665.33 217.447L1670.98 210.16L1642.65 210.272C1641.89 210.275 1641.46 209.405 1641.93 208.807L1663.9 180.451C1666.24 177.432 1669.84 175.658 1673.66 175.643L1751.81 175.336C1752.57 175.333 1753 176.202 1752.53 176.8L1743.36 188.641C1743.19 188.862 1742.92 188.992 1742.64 188.993L1676.37 189.254Z" fill="#232931" fill-opacity="0.24"/>
<path d="M1668.15 196.154L1667.34 197.198L1668.66 197.193L1697.9 197.078L1671.8 230.399L1628.75 230.568C1628.53 230.569 1628.41 230.316 1628.54 230.142L1637.72 218.301C1637.77 218.237 1637.85 218.199 1637.93 218.199L1665.33 218.091L1665.65 218.09L1665.84 217.842L1671.49 210.555L1672.3 209.511L1670.98 209.516L1642.65 209.628C1642.43 209.629 1642.3 209.376 1642.44 209.202L1664.41 180.846C1666.63 177.983 1670.05 176.302 1673.67 176.287L1751.82 175.98C1752.04 175.979 1752.16 176.232 1752.02 176.406L1742.85 188.247C1742.8 188.311 1742.72 188.349 1742.64 188.349L1676.37 188.61C1674.87 188.615 1673.45 189.313 1672.53 190.501L1668.15 196.154ZM1721.34 217.871C1721.56 217.87 1721.69 218.123 1721.55 218.297L1712.37 230.138C1712.32 230.202 1712.25 230.24 1712.17 230.24L1683.17 230.354C1682.95 230.355 1682.83 230.102 1682.96 229.928L1692.14 218.087C1692.19 218.023 1692.26 217.985 1692.35 217.985L1721.34 217.871ZM1736.7 196.925C1736.92 196.924 1737.04 197.177 1736.91 197.351L1727.73 209.192C1727.68 209.256 1727.6 209.294 1727.52 209.294L1698.53 209.408C1698.31 209.409 1698.18 209.156 1698.32 208.982L1707.49 197.141C1707.54 197.077 1707.62 197.039 1707.7 197.039L1736.7 196.925Z" stroke="#464F61" stroke-opacity="0.33" stroke-width="1.28818"/>
<path d="M1157.09 215.035C1157.85 215.032 1158.27 215.901 1157.81 216.499L1148.63 228.34C1148.46 228.561 1148.2 228.69 1147.92 228.692L1118.92 228.806C1118.17 228.809 1117.74 227.939 1118.2 227.341L1127.38 215.5C1127.55 215.279 1127.81 215.15 1128.09 215.149L1157.09 215.035Z" fill="#232931" fill-opacity="0.24"/>
<path d="M1172.44 194.089C1173.2 194.086 1173.63 194.955 1173.16 195.553L1163.99 207.394C1163.82 207.615 1163.55 207.745 1163.27 207.746L1134.28 207.86C1133.52 207.863 1133.09 206.993 1133.56 206.395L1142.73 194.554C1142.9 194.333 1143.17 194.204 1143.45 194.203L1172.44 194.089Z" fill="#232931" fill-opacity="0.24"/>
<path d="M1112.12 187.061C1110.82 187.066 1109.59 187.672 1108.79 188.703L1104.41 194.356L1134.97 194.236L1107.86 228.849L1064.51 229.02C1063.75 229.022 1063.32 228.153 1063.79 227.555L1072.96 215.714C1073.13 215.493 1073.4 215.364 1073.68 215.362L1101.08 215.255L1106.73 207.968L1078.4 208.079C1077.64 208.082 1077.21 207.213 1077.68 206.615L1099.65 178.259C1101.99 175.239 1105.59 173.466 1109.41 173.451L1187.56 173.144C1188.32 173.141 1188.75 174.01 1188.28 174.608L1179.11 186.449C1178.94 186.67 1178.67 186.8 1178.39 186.801L1112.12 187.061Z" fill="#232931" fill-opacity="0.24"/>
<path d="M1103.9 193.962L1103.09 195.005L1104.41 195L1133.65 194.885L1107.55 228.206L1064.5 228.375C1064.28 228.376 1064.16 228.124 1064.29 227.95L1073.47 216.109C1073.52 216.045 1073.6 216.007 1073.68 216.007L1101.08 215.899L1101.4 215.898L1101.59 215.649L1107.24 208.363L1108.05 207.319L1106.72 207.324L1078.4 207.435C1078.18 207.436 1078.05 207.183 1078.19 207.01L1100.16 178.653C1102.38 175.791 1105.8 174.109 1109.42 174.095L1187.56 173.788C1187.78 173.787 1187.91 174.04 1187.77 174.213L1178.6 186.054C1178.55 186.119 1178.47 186.156 1178.39 186.157L1112.12 186.417C1110.62 186.423 1109.2 187.121 1108.28 188.309L1103.9 193.962ZM1157.09 215.679C1157.31 215.678 1157.44 215.93 1157.3 216.104L1148.12 227.945C1148.07 228.009 1148 228.047 1147.92 228.048L1118.92 228.161C1118.7 228.162 1118.58 227.91 1118.71 227.736L1127.89 215.895C1127.94 215.831 1128.01 215.793 1128.1 215.793L1157.09 215.679ZM1172.45 194.733C1172.67 194.732 1172.79 194.985 1172.66 195.158L1163.48 206.999C1163.43 207.064 1163.35 207.101 1163.27 207.102L1134.28 207.216C1134.06 207.216 1133.93 206.964 1134.07 206.79L1143.24 194.949C1143.29 194.885 1143.37 194.847 1143.45 194.847L1172.45 194.733Z" stroke="#464F61" stroke-opacity="0.33" stroke-width="1.28818"/>
<path d="M1815.39 217.744C1816.15 217.741 1816.58 218.61 1816.11 219.208L1806.94 231.049C1806.76 231.27 1806.5 231.399 1806.22 231.401L1777.23 231.515C1776.47 231.518 1776.04 230.648 1776.5 230.05L1785.68 218.209C1785.85 217.988 1786.12 217.859 1786.4 217.858L1815.39 217.744Z" fill="#232931" fill-opacity="0.24"/>
<path d="M1830.75 196.798C1831.5 196.795 1831.93 197.664 1831.47 198.262L1822.29 210.103C1822.12 210.324 1821.86 210.454 1821.58 210.455L1792.58 210.569C1791.82 210.572 1791.4 209.702 1791.86 209.104L1801.04 197.263C1801.21 197.042 1801.47 196.913 1801.75 196.912L1830.75 196.798Z" fill="#232931" fill-opacity="0.24"/>
<path d="M1770.43 189.77C1769.12 189.775 1767.89 190.381 1767.09 191.412L1762.71 197.065L1793.28 196.945L1766.16 231.558L1722.81 231.728C1722.05 231.731 1721.62 230.862 1722.09 230.264L1731.26 218.423C1731.44 218.202 1731.7 218.073 1731.98 218.071L1759.38 217.964L1765.03 210.677L1736.7 210.788C1735.94 210.791 1735.52 209.922 1735.98 209.324L1757.96 180.968C1760.3 177.948 1763.9 176.175 1767.72 176.16L1845.86 175.853C1846.62 175.85 1847.05 176.719 1846.59 177.317L1837.41 189.158C1837.24 189.379 1836.97 189.509 1836.69 189.51L1770.43 189.77Z" fill="#232931" fill-opacity="0.24"/>
<path d="M1762.2 196.671L1761.39 197.714L1762.71 197.709L1791.95 197.594L1765.85 230.915L1722.81 231.084C1722.59 231.085 1722.46 230.833 1722.6 230.659L1731.77 218.818C1731.82 218.754 1731.9 218.716 1731.98 218.716L1759.39 218.608L1759.7 218.607L1759.89 218.358L1765.54 211.071L1766.35 210.028L1765.03 210.033L1736.7 210.144C1736.48 210.145 1736.35 209.892 1736.49 209.719L1758.47 181.362C1760.68 178.5 1764.1 176.818 1767.72 176.804L1845.87 176.497C1846.09 176.496 1846.21 176.749 1846.08 176.922L1836.9 188.763C1836.85 188.828 1836.77 188.865 1836.69 188.866L1770.42 189.126C1768.92 189.132 1767.5 189.83 1766.58 191.018L1762.2 196.671ZM1815.39 218.388C1815.61 218.387 1815.74 218.639 1815.6 218.813L1806.43 230.654C1806.38 230.718 1806.3 230.756 1806.22 230.756L1777.22 230.87C1777 230.871 1776.88 230.619 1777.01 230.445L1786.19 218.604C1786.24 218.54 1786.32 218.502 1786.4 218.502L1815.39 218.388ZM1830.75 197.442C1830.97 197.441 1831.09 197.693 1830.96 197.867L1821.78 209.708C1821.73 209.773 1821.65 209.81 1821.57 209.811L1792.58 209.925C1792.36 209.925 1792.23 209.673 1792.37 209.499L1801.54 197.658C1801.59 197.594 1801.67 197.556 1801.75 197.556L1830.75 197.442Z" stroke="#464F61" stroke-opacity="0.33" stroke-width="1.28818"/>
<path d="M1251.14 215.551C1251.9 215.548 1252.33 216.417 1251.86 217.015L1242.68 228.856C1242.51 229.077 1242.25 229.207 1241.97 229.208L1212.97 229.322C1212.22 229.325 1211.79 228.456 1212.25 227.858L1221.43 216.017C1221.6 215.796 1221.87 215.666 1222.14 215.665L1251.14 215.551Z" fill="#232931" fill-opacity="0.24"/>
<path d="M1266.5 194.605C1267.25 194.602 1267.68 195.472 1267.22 196.07L1258.04 207.91C1257.87 208.131 1257.61 208.261 1257.33 208.262L1228.33 208.376C1227.57 208.379 1227.14 207.51 1227.61 206.912L1236.79 195.071C1236.96 194.85 1237.22 194.72 1237.5 194.719L1266.5 194.605Z" fill="#232931" fill-opacity="0.24"/>
<path d="M1206.17 187.578C1204.87 187.583 1203.64 188.189 1202.84 189.22L1198.46 194.873L1229.03 194.753L1201.91 229.366L1158.56 229.536C1157.8 229.539 1157.37 228.67 1157.84 228.072L1167.01 216.231C1167.19 216.01 1167.45 215.88 1167.73 215.879L1195.13 215.771L1200.78 208.485L1172.45 208.596C1171.69 208.599 1171.27 207.73 1171.73 207.132L1193.71 178.775C1196.05 175.756 1199.65 173.982 1203.47 173.967L1281.61 173.66C1282.37 173.657 1282.8 174.527 1282.34 175.125L1273.16 186.966C1272.99 187.186 1272.72 187.316 1272.44 187.317L1206.17 187.578Z" fill="#232931" fill-opacity="0.24"/>
<path d="M1197.95 194.478L1197.14 195.522L1198.46 195.517L1227.7 195.402L1201.6 228.723L1158.56 228.892C1158.34 228.893 1158.21 228.64 1158.35 228.466L1167.52 216.625C1167.57 216.561 1167.65 216.523 1167.73 216.523L1195.13 216.415L1195.45 216.414L1195.64 216.166L1201.29 208.879L1202.1 207.835L1200.78 207.84L1172.45 207.952C1172.23 207.953 1172.1 207.7 1172.24 207.526L1194.21 179.17C1196.43 176.307 1199.85 174.626 1203.47 174.612L1281.62 174.304C1281.84 174.303 1281.96 174.556 1281.83 174.73L1272.65 186.571C1272.6 186.635 1272.52 186.673 1272.44 186.673L1206.17 186.934C1204.67 186.94 1203.25 187.637 1202.33 188.825L1197.95 194.478ZM1251.14 216.195C1251.36 216.194 1251.49 216.447 1251.35 216.621L1242.18 228.462C1242.13 228.526 1242.05 228.564 1241.97 228.564L1212.97 228.678C1212.75 228.679 1212.63 228.426 1212.76 228.252L1221.94 216.411C1221.99 216.347 1222.07 216.31 1222.15 216.309L1251.14 216.195ZM1266.5 195.249C1266.72 195.248 1266.84 195.501 1266.71 195.675L1257.53 207.516C1257.48 207.58 1257.4 207.618 1257.32 207.618L1228.33 207.732C1228.11 207.733 1227.98 207.48 1228.12 207.306L1237.29 195.466C1237.34 195.401 1237.42 195.364 1237.5 195.363L1266.5 195.249Z" stroke="#464F61" stroke-opacity="0.33" stroke-width="1.28818"/>
<path d="M1345.19 216.068C1345.95 216.065 1346.38 216.935 1345.92 217.533L1336.74 229.373C1336.57 229.594 1336.3 229.724 1336.02 229.725L1307.03 229.839C1306.27 229.842 1305.84 228.973 1306.31 228.375L1315.48 216.534C1315.66 216.313 1315.92 216.183 1316.2 216.182L1345.19 216.068Z" fill="#232931" fill-opacity="0.24"/>
<path d="M1360.55 195.122C1361.31 195.119 1361.73 195.989 1361.27 196.587L1352.09 208.428C1351.92 208.648 1351.66 208.778 1351.38 208.779L1322.38 208.893C1321.63 208.896 1321.2 208.027 1321.66 207.429L1330.84 195.588C1331.01 195.367 1331.27 195.237 1331.55 195.236L1360.55 195.122Z" fill="#232931" fill-opacity="0.24"/>
<path d="M1300.23 188.095C1298.92 188.1 1297.69 188.706 1296.9 189.737L1292.51 195.39L1323.08 195.27L1295.97 229.883L1252.61 230.053C1251.86 230.056 1251.43 229.187 1251.89 228.589L1261.07 216.748C1261.24 216.527 1261.5 216.397 1261.78 216.396L1289.19 216.288L1294.83 209.002L1266.5 209.113C1265.75 209.116 1265.32 208.247 1265.78 207.649L1287.76 179.292C1290.1 176.273 1293.7 174.5 1297.52 174.485L1375.67 174.177C1376.42 174.174 1376.85 175.044 1376.39 175.642L1367.21 187.483C1367.04 187.704 1366.78 187.833 1366.5 187.834L1300.23 188.095Z" fill="#232931" fill-opacity="0.24"/>
<path d="M1292.01 194.995L1291.2 196.039L1292.52 196.034L1321.75 195.919L1295.65 229.24L1252.61 229.409C1252.39 229.41 1252.26 229.157 1252.4 228.983L1261.58 217.142C1261.63 217.078 1261.7 217.041 1261.78 217.04L1289.19 216.932L1289.5 216.931L1289.69 216.683L1295.34 209.396L1296.15 208.352L1294.83 208.358L1266.5 208.469C1266.28 208.47 1266.16 208.217 1266.29 208.043L1288.27 179.687C1290.49 176.824 1293.9 175.143 1297.52 175.129L1375.67 174.821C1375.89 174.821 1376.01 175.073 1375.88 175.247L1366.7 187.088C1366.65 187.152 1366.58 187.19 1366.5 187.19L1300.23 187.451C1298.72 187.457 1297.31 188.154 1296.39 189.342L1292.01 194.995ZM1345.2 216.712C1345.42 216.711 1345.54 216.964 1345.41 217.138L1336.23 228.979C1336.18 229.043 1336.1 229.081 1336.02 229.081L1307.03 229.195C1306.81 229.196 1306.68 228.943 1306.82 228.77L1315.99 216.929C1316.04 216.864 1316.12 216.827 1316.2 216.826L1345.2 216.712ZM1360.55 195.766C1360.77 195.766 1360.9 196.018 1360.76 196.192L1351.58 208.033C1351.53 208.097 1351.46 208.135 1351.38 208.135L1322.38 208.249C1322.16 208.25 1322.04 207.997 1322.17 207.824L1331.35 195.983C1331.4 195.918 1331.47 195.881 1331.56 195.88L1360.55 195.766Z" stroke="#464F61" stroke-opacity="0.33" stroke-width="1.28818"/>
<path d="M1439.25 216.585C1440 216.582 1440.43 217.451 1439.97 218.049L1430.79 229.89C1430.62 230.111 1430.36 230.241 1430.08 230.242L1401.08 230.356C1400.32 230.359 1399.9 229.49 1400.36 228.892L1409.54 217.051C1409.71 216.83 1409.97 216.7 1410.25 216.699L1439.25 216.585Z" fill="#232931" fill-opacity="0.5"/>
<path d="M1454.6 195.639C1455.36 195.636 1455.79 196.505 1455.32 197.103L1446.15 208.944C1445.97 209.165 1445.71 209.295 1445.43 209.296L1416.44 209.41C1415.68 209.413 1415.25 208.544 1415.71 207.946L1424.89 196.105C1425.06 195.884 1425.33 195.754 1425.6 195.753L1454.6 195.639Z" fill="#232931" fill-opacity="0.5"/>
<path d="M1394.28 188.612C1392.98 188.617 1391.75 189.222 1390.95 190.253L1386.57 195.906L1417.13 195.786L1390.02 230.399L1346.66 230.57C1345.91 230.573 1345.48 229.703 1345.94 229.105L1355.12 217.265C1355.29 217.044 1355.55 216.914 1355.83 216.913L1383.24 216.805L1388.88 209.518L1360.56 209.63C1359.8 209.633 1359.37 208.763 1359.84 208.165L1381.81 179.809C1384.15 176.79 1387.75 175.016 1391.57 175.001L1469.72 174.694C1470.48 174.691 1470.9 175.56 1470.44 176.158L1461.26 187.999C1461.09 188.22 1460.83 188.35 1460.55 188.351L1394.28 188.612Z" fill="#232931" fill-opacity="0.5"/>
<path d="M1386.06 195.512L1385.25 196.556L1386.57 196.55L1415.81 196.436L1389.71 229.756L1346.66 229.926C1346.44 229.927 1346.32 229.674 1346.45 229.5L1355.63 217.659C1355.68 217.595 1355.75 217.557 1355.84 217.557L1383.24 217.449L1383.55 217.448L1383.75 217.2L1389.39 209.913L1390.2 208.869L1388.88 208.874L1360.55 208.986C1360.33 208.986 1360.21 208.734 1360.34 208.56L1382.32 180.204C1384.54 177.341 1387.95 175.659 1391.57 175.645L1469.72 175.338C1469.94 175.337 1470.07 175.59 1469.93 175.764L1460.75 187.605C1460.7 187.669 1460.63 187.707 1460.55 187.707L1394.28 187.967C1392.78 187.973 1391.36 188.671 1390.44 189.859L1386.06 195.512ZM1439.25 217.229C1439.47 217.228 1439.59 217.481 1439.46 217.655L1430.28 229.496C1430.23 229.56 1430.15 229.597 1430.07 229.598L1401.08 229.712C1400.86 229.713 1400.73 229.46 1400.87 229.286L1410.05 217.445C1410.09 217.381 1410.17 217.343 1410.25 217.343L1439.25 217.229ZM1454.6 196.283C1454.82 196.282 1454.95 196.535 1454.81 196.709L1445.64 208.55C1445.59 208.614 1445.51 208.652 1445.43 208.652L1416.43 208.766C1416.21 208.767 1416.09 208.514 1416.22 208.34L1425.4 196.499C1425.45 196.435 1425.53 196.397 1425.61 196.397L1454.6 196.283Z" stroke="#596680" stroke-opacity="0.33" stroke-width="1.28818"/>
<path d="M1533.3 217.102C1534.05 217.099 1534.48 217.968 1534.02 218.566L1524.84 230.407C1524.67 230.628 1524.41 230.758 1524.13 230.759L1495.13 230.873C1494.38 230.876 1493.95 230.007 1494.41 229.409L1503.59 217.568C1503.76 217.347 1504.02 217.217 1504.3 217.216L1533.3 217.102Z" fill="#232931" fill-opacity="0.24"/>
<path d="M1548.65 196.156C1549.41 196.153 1549.84 197.022 1549.37 197.62L1540.2 209.461C1540.03 209.682 1539.76 209.812 1539.48 209.813L1510.49 209.927C1509.73 209.93 1509.3 209.061 1509.77 208.463L1518.94 196.622C1519.11 196.401 1519.38 196.271 1519.66 196.27L1548.65 196.156Z" fill="#232931" fill-opacity="0.24"/>
<path d="M1488.33 189.129C1487.03 189.134 1485.8 189.739 1485 190.77L1480.62 196.423L1511.18 196.303L1484.07 230.916L1440.72 231.087C1439.96 231.09 1439.53 230.221 1439.99 229.623L1449.17 217.782C1449.34 217.561 1449.61 217.431 1449.89 217.43L1477.29 217.322L1482.94 210.035L1454.61 210.147C1453.85 210.15 1453.42 209.28 1453.89 208.682L1475.86 180.326C1478.2 177.307 1481.8 175.533 1485.62 175.518L1563.77 175.211C1564.53 175.208 1564.96 176.077 1564.49 176.675L1555.32 188.516C1555.14 188.737 1554.88 188.867 1554.6 188.868L1488.33 189.129Z" fill="#232931" fill-opacity="0.24"/>
<path d="M1480.11 196.029L1479.3 197.073L1480.62 197.068L1509.86 196.953L1483.76 230.274L1440.71 230.443C1440.49 230.444 1440.37 230.191 1440.5 230.017L1449.68 218.176C1449.73 218.112 1449.81 218.074 1449.89 218.074L1477.29 217.966L1477.61 217.965L1477.8 217.717L1483.45 210.43L1484.25 209.386L1482.93 209.391L1454.61 209.503C1454.39 209.504 1454.26 209.251 1454.4 209.077L1476.37 180.721C1478.59 177.858 1482 176.177 1485.63 176.162L1563.77 175.855C1563.99 175.854 1564.12 176.107 1563.98 176.281L1554.81 188.122C1554.76 188.186 1554.68 188.224 1554.6 188.224L1488.33 188.485C1486.83 188.49 1485.41 189.188 1484.49 190.376L1480.11 196.029ZM1533.3 217.746C1533.52 217.745 1533.64 217.998 1533.51 218.172L1524.33 230.013C1524.28 230.077 1524.21 230.115 1524.13 230.115L1495.13 230.229C1494.91 230.23 1494.79 229.977 1494.92 229.803L1504.1 217.962C1504.15 217.898 1504.22 217.86 1504.3 217.86L1533.3 217.746ZM1548.66 196.8C1548.88 196.799 1549 197.052 1548.86 197.226L1539.69 209.067C1539.64 209.131 1539.56 209.169 1539.48 209.169L1510.48 209.283C1510.26 209.284 1510.14 209.031 1510.27 208.857L1519.45 197.016C1519.5 196.952 1519.58 196.914 1519.66 196.914L1548.66 196.8Z" stroke="#464F61" stroke-opacity="0.33" stroke-width="1.28818"/>
<g filter="url(#filter12_f_5_45719)">
<circle cx="1388.15" cy="181.661" r="7.50565" transform="rotate(-0.225246 1388.15 181.661)" fill="#FBFEFF"/>
</g>
<g filter="url(#filter13_f_5_45719)">
<circle cx="1390.18" cy="185.296" r="15.8365" transform="rotate(-0.225246 1390.18 185.296)" fill="#FBFEFF"/>
</g>
<g filter="url(#filter14_f_5_45719)">
<circle cx="1387.2" cy="178.85" r="2.81462" transform="rotate(-0.225246 1387.2 178.85)" fill="#FBFEFF"/>
</g>
<g filter="url(#filter15_f_5_45719)">
<circle cx="1388.18" cy="179.366" r="5.9387" transform="rotate(-0.225246 1388.18 179.366)" fill="#FBFEFF"/>
</g>
<g filter="url(#filter16_f_5_45719)">
<circle cx="1050.06" cy="221.754" r="7.50565" transform="rotate(-0.225246 1050.06 221.754)" fill="#FBFEFF"/>
</g>
<g filter="url(#filter17_f_5_45719)">
<circle cx="1052.09" cy="225.39" r="15.8365" transform="rotate(-0.225246 1052.09 225.39)" fill="#FBFEFF"/>
</g>
<g filter="url(#filter18_f_5_45719)">
<circle cx="1049.11" cy="218.944" r="2.81462" transform="rotate(-0.225246 1049.11 218.944)" fill="#FBFEFF"/>
</g>
<g filter="url(#filter19_f_5_45719)">
<circle cx="1050.09" cy="219.459" r="5.9387" transform="rotate(-0.225246 1050.09 219.459)" fill="#FBFEFF"/>
</g>
<g filter="url(#filter20_f_5_45719)">
<circle cx="1670.43" cy="229.352" r="4.85994" transform="rotate(-0.225246 1670.43 229.352)" fill="#FBFEFF"/>
</g>
<g filter="url(#filter21_f_5_45719)">
<circle cx="1671.74" cy="231.706" r="10.2542" transform="rotate(-0.225246 1671.74 231.706)" fill="#FBFEFF"/>
</g>
<g filter="url(#filter22_f_5_45719)">
<circle cx="1669.81" cy="227.532" r="1.82248" transform="rotate(-0.225246 1669.81 227.532)" fill="#FBFEFF"/>
</g>
<g filter="url(#filter23_f_5_45719)">
<circle cx="1670.45" cy="227.865" r="3.84533" transform="rotate(-0.225246 1670.45 227.865)" fill="#FBFEFF"/>
</g>
<defs>
<filter id="filter0_f_5_45719" x="359.733" y="92.1179" width="172.289" height="172.29" filterUnits="userSpaceOnUse" color-interpolation-filters="sRGB">
<feFlood flood-opacity="0" result="BackgroundImageFix"/>
<feBlend mode="normal" in="SourceGraphic" in2="BackgroundImageFix" result="shape"/>
<feGaussianBlur stdDeviation="39.3195" result="effect1_foregroundBlur_5_45719"/>
</filter>
<filter id="filter1_f_5_45719" x="266.148" y="0.137787" width="363.522" height="363.522" filterUnits="userSpaceOnUse" color-interpolation-filters="sRGB">
<feFlood flood-opacity="0" result="BackgroundImageFix"/>
<feBlend mode="normal" in="SourceGraphic" in2="BackgroundImageFix" result="shape"/>
<feGaussianBlur stdDeviation="82.9621" result="effect1_foregroundBlur_5_45719"/>
</filter>
<filter id="filter2_f_5_45719" x="426.29" y="156.811" width="37.2823" height="37.2828" filterUnits="userSpaceOnUse" color-interpolation-filters="sRGB">
<feFlood flood-opacity="0" result="BackgroundImageFix"/>
<feBlend mode="normal" in="SourceGraphic" in2="BackgroundImageFix" result="shape"/>
<feGaussianBlur stdDeviation="7.91336" result="effect1_foregroundBlur_5_45719"/>
</filter>
<filter id="filter3_f_5_45719" x="406.574" y="136.635" width="78.6646" height="78.6646" filterUnits="userSpaceOnUse" color-interpolation-filters="sRGB">
<feFlood flood-opacity="0" result="BackgroundImageFix"/>
<feBlend mode="normal" in="SourceGraphic" in2="BackgroundImageFix" result="shape"/>
<feGaussianBlur stdDeviation="16.6968" result="effect1_foregroundBlur_5_45719"/>
</filter>
<filter id="filter4_f_5_45719" x="21.6442" y="132.212" width="172.29" height="172.29" filterUnits="userSpaceOnUse" color-interpolation-filters="sRGB">
<feFlood flood-opacity="0" result="BackgroundImageFix"/>
<feBlend mode="normal" in="SourceGraphic" in2="BackgroundImageFix" result="shape"/>
<feGaussianBlur stdDeviation="39.3195" result="effect1_foregroundBlur_5_45719"/>
</filter>
<filter id="filter5_f_5_45719" x="-71.9408" y="40.2315" width="363.521" height="363.522" filterUnits="userSpaceOnUse" color-interpolation-filters="sRGB">
<feFlood flood-opacity="0" result="BackgroundImageFix"/>
<feBlend mode="normal" in="SourceGraphic" in2="BackgroundImageFix" result="shape"/>
<feGaussianBlur stdDeviation="82.9621" result="effect1_foregroundBlur_5_45719"/>
</filter>
<filter id="filter6_f_5_45719" x="88.2006" y="196.905" width="37.2833" height="37.2828" filterUnits="userSpaceOnUse" color-interpolation-filters="sRGB">
<feFlood flood-opacity="0" result="BackgroundImageFix"/>
<feBlend mode="normal" in="SourceGraphic" in2="BackgroundImageFix" result="shape"/>
<feGaussianBlur stdDeviation="7.91336" result="effect1_foregroundBlur_5_45719"/>
</filter>
<filter id="filter7_f_5_45719" x="68.4853" y="176.729" width="78.6641" height="78.6646" filterUnits="userSpaceOnUse" color-interpolation-filters="sRGB">
<feFlood flood-opacity="0" result="BackgroundImageFix"/>
<feBlend mode="normal" in="SourceGraphic" in2="BackgroundImageFix" result="shape"/>
<feGaussianBlur stdDeviation="16.6968" result="effect1_foregroundBlur_5_45719"/>
</filter>
<filter id="filter8_f_5_45719" x="672.373" y="170.175" width="111.558" height="111.558" filterUnits="userSpaceOnUse" color-interpolation-filters="sRGB">
<feFlood flood-opacity="0" result="BackgroundImageFix"/>
<feBlend mode="normal" in="SourceGraphic" in2="BackgroundImageFix" result="shape"/>
<feGaussianBlur stdDeviation="25.4595" result="effect1_foregroundBlur_5_45719"/>
</filter>
<filter id="filter9_f_5_45719" x="611.775" y="110.617" width="235.382" height="235.382" filterUnits="userSpaceOnUse" color-interpolation-filters="sRGB">
<feFlood flood-opacity="0" result="BackgroundImageFix"/>
<feBlend mode="normal" in="SourceGraphic" in2="BackgroundImageFix" result="shape"/>
<feGaussianBlur stdDeviation="53.7183" result="effect1_foregroundBlur_5_45719"/>
</filter>
<filter id="filter10_f_5_45719" x="715.468" y="212.064" width="24.1407" height="24.1407" filterUnits="userSpaceOnUse" color-interpolation-filters="sRGB">
<feFlood flood-opacity="0" result="BackgroundImageFix"/>
<feBlend mode="normal" in="SourceGraphic" in2="BackgroundImageFix" result="shape"/>
<feGaussianBlur stdDeviation="5.12393" result="effect1_foregroundBlur_5_45719"/>
</filter>
<filter id="filter11_f_5_45719" x="702.703" y="199" width="50.9354" height="50.9354" filterUnits="userSpaceOnUse" color-interpolation-filters="sRGB">
<feFlood flood-opacity="0" result="BackgroundImageFix"/>
<feBlend mode="normal" in="SourceGraphic" in2="BackgroundImageFix" result="shape"/>
<feGaussianBlur stdDeviation="10.8112" result="effect1_foregroundBlur_5_45719"/>
</filter>
<filter id="filter12_f_5_45719" x="1302.01" y="95.5158" width="172.289" height="172.29" filterUnits="userSpaceOnUse" color-interpolation-filters="sRGB">
<feFlood flood-opacity="0" result="BackgroundImageFix"/>
<feBlend mode="normal" in="SourceGraphic" in2="BackgroundImageFix" result="shape"/>
<feGaussianBlur stdDeviation="39.3195" result="effect1_foregroundBlur_5_45719"/>
</filter>
<filter id="filter13_f_5_45719" x="1208.42" y="3.53525" width="363.522" height="363.522" filterUnits="userSpaceOnUse" color-interpolation-filters="sRGB">
<feFlood flood-opacity="0" result="BackgroundImageFix"/>
<feBlend mode="normal" in="SourceGraphic" in2="BackgroundImageFix" result="shape"/>
<feGaussianBlur stdDeviation="82.9621" result="effect1_foregroundBlur_5_45719"/>
</filter>
<filter id="filter14_f_5_45719" x="1368.56" y="160.208" width="37.2823" height="37.2828" filterUnits="userSpaceOnUse" color-interpolation-filters="sRGB">
<feFlood flood-opacity="0" result="BackgroundImageFix"/>
<feBlend mode="normal" in="SourceGraphic" in2="BackgroundImageFix" result="shape"/>
<feGaussianBlur stdDeviation="7.91336" result="effect1_foregroundBlur_5_45719"/>
</filter>
<filter id="filter15_f_5_45719" x="1348.85" y="140.033" width="78.6646" height="78.6646" filterUnits="userSpaceOnUse" color-interpolation-filters="sRGB">
<feFlood flood-opacity="0" result="BackgroundImageFix"/>
<feBlend mode="normal" in="SourceGraphic" in2="BackgroundImageFix" result="shape"/>
<feGaussianBlur stdDeviation="16.6968" result="effect1_foregroundBlur_5_45719"/>
</filter>
<filter id="filter16_f_5_45719" x="963.917" y="135.61" width="172.289" height="172.29" filterUnits="userSpaceOnUse" color-interpolation-filters="sRGB">
<feFlood flood-opacity="0" result="BackgroundImageFix"/>
<feBlend mode="normal" in="SourceGraphic" in2="BackgroundImageFix" result="shape"/>
<feGaussianBlur stdDeviation="39.3195" result="effect1_foregroundBlur_5_45719"/>
</filter>
<filter id="filter17_f_5_45719" x="870.331" y="43.6295" width="363.522" height="363.522" filterUnits="userSpaceOnUse" color-interpolation-filters="sRGB">
<feFlood flood-opacity="0" result="BackgroundImageFix"/>
<feBlend mode="normal" in="SourceGraphic" in2="BackgroundImageFix" result="shape"/>
<feGaussianBlur stdDeviation="82.9621" result="effect1_foregroundBlur_5_45719"/>
</filter>
<filter id="filter18_f_5_45719" x="1030.47" y="200.302" width="37.2823" height="37.2828" filterUnits="userSpaceOnUse" color-interpolation-filters="sRGB">
<feFlood flood-opacity="0" result="BackgroundImageFix"/>
<feBlend mode="normal" in="SourceGraphic" in2="BackgroundImageFix" result="shape"/>
<feGaussianBlur stdDeviation="7.91336" result="effect1_foregroundBlur_5_45719"/>
</filter>
<filter id="filter19_f_5_45719" x="1010.76" y="180.127" width="78.6646" height="78.6646" filterUnits="userSpaceOnUse" color-interpolation-filters="sRGB">
<feFlood flood-opacity="0" result="BackgroundImageFix"/>
<feBlend mode="normal" in="SourceGraphic" in2="BackgroundImageFix" result="shape"/>
<feGaussianBlur stdDeviation="16.6968" result="effect1_foregroundBlur_5_45719"/>
</filter>
<filter id="filter20_f_5_45719" x="1614.65" y="173.573" width="111.558" height="111.558" filterUnits="userSpaceOnUse" color-interpolation-filters="sRGB">
<feFlood flood-opacity="0" result="BackgroundImageFix"/>
<feBlend mode="normal" in="SourceGraphic" in2="BackgroundImageFix" result="shape"/>
<feGaussianBlur stdDeviation="25.4595" result="effect1_foregroundBlur_5_45719"/>
</filter>
<filter id="filter21_f_5_45719" x="1554.05" y="114.015" width="235.382" height="235.382" filterUnits="userSpaceOnUse" color-interpolation-filters="sRGB">
<feFlood flood-opacity="0" result="BackgroundImageFix"/>
<feBlend mode="normal" in="SourceGraphic" in2="BackgroundImageFix" result="shape"/>
<feGaussianBlur stdDeviation="53.7183" result="effect1_foregroundBlur_5_45719"/>
</filter>
<filter id="filter22_f_5_45719" x="1657.74" y="215.461" width="24.1407" height="24.1407" filterUnits="userSpaceOnUse" color-interpolation-filters="sRGB">
<feFlood flood-opacity="0" result="BackgroundImageFix"/>
<feBlend mode="normal" in="SourceGraphic" in2="BackgroundImageFix" result="shape"/>
<feGaussianBlur stdDeviation="5.12393" result="effect1_foregroundBlur_5_45719"/>
</filter>
<filter id="filter23_f_5_45719" x="1644.98" y="202.398" width="50.9354" height="50.9354" filterUnits="userSpaceOnUse" color-interpolation-filters="sRGB">
<feFlood flood-opacity="0" result="BackgroundImageFix"/>
<feBlend mode="normal" in="SourceGraphic" in2="BackgroundImageFix" result="shape"/>
<feGaussianBlur stdDeviation="10.8112" result="effect1_foregroundBlur_5_45719"/>
</filter>
</defs>
</svg>
