<svg width="110" height="42" viewBox="0 0 110 42" fill="none" xmlns="http://www.w3.org/2000/svg">
<path d="M76.6526 22.1649V40.7479H72.5416L63.6612 28.6724V40.7479H59.7227V23.9018L58.8228 22.1649H63.9147L72.7141 34.4076V22.1649H76.6526Z" fill="#464F61"/>
<path d="M35.7227 41.0689C37.0785 41.0762 38.3308 40.8476 39.4797 40.386C40.6301 39.9242 41.6215 39.2838 42.4584 38.4674C43.2938 37.6511 43.9492 36.6822 44.4246 35.564C44.7666 34.7593 44.9871 33.9093 45.0876 33.0152C45.1266 32.6679 45.194 31.2667 45.122 30.421H35.7617L34.0954 33.7715H40.7741C40.5161 34.8296 39.9327 35.7017 39.0268 36.3583C38.1193 37.0164 37.0336 37.3418 35.7692 37.3359C34.9563 37.3315 34.1974 37.1733 33.494 36.861C32.7905 36.5489 32.1786 36.1268 31.6582 35.5948C31.1362 35.0627 30.7298 34.4383 30.4343 33.7217C30.1403 33.0049 29.9949 32.2399 29.9994 31.4279C30.0039 30.616 30.1569 29.8524 30.4583 29.1385C30.7598 28.4248 31.1737 27.8048 31.7017 27.2772C32.2282 26.7496 32.8401 26.3392 33.5375 26.0417C34.2349 25.7456 34.9893 25.599 35.8037 25.602C36.906 25.6079 37.8795 25.8511 38.7268 26.3319C39.5742 26.8126 40.2296 27.5044 40.6946 28.4072L44.3902 26.6777C43.6208 25.174 42.4838 23.9942 40.9795 23.1383C39.4753 22.2838 37.7654 21.8514 35.8502 21.8411C34.4944 21.8338 33.2105 22.0801 31.9987 22.5769C30.7854 23.0737 29.7294 23.7567 28.831 24.6274C27.9326 25.4965 27.2172 26.5136 26.6878 27.6758C26.1569 28.8381 25.89 30.0825 25.8824 31.4059C25.8749 32.7294 26.1269 33.9767 26.6353 35.1448C27.1452 36.3129 27.8397 37.3359 28.7201 38.2138C29.6004 39.0918 30.6414 39.7865 31.8397 40.2951C33.0366 40.8036 34.3324 41.0616 35.7227 41.0689Z" fill="#464F61"/>
<path d="M5.01388 22.1637H0L0.946383 24.0851V38.8295L0 40.7495H11.5066L12.5504 37.1133H5.01388V22.1637Z" fill="#464F61"/>
<path d="M13.9394 40.7495H25.155V37.1147H18.0219V33.0373H23.5368L24.5357 29.5432H18.0219V25.7838H25.155V22.1637H13.9394V40.7495Z" fill="#464F61"/>
<path d="M46.5463 40.7495H57.7618V37.1147H50.6288V33.0373H56.1451L57.1425 29.5432H50.6288V25.7838H57.7618V22.1637H46.5463V40.7495Z" fill="#464F61"/>
<path d="M53.731 19.2294C55.087 19.2367 56.3393 19.0081 57.4881 18.5464C58.6385 18.0847 59.6298 17.4442 60.4667 16.6278C61.3021 15.8116 61.9575 14.8427 62.433 13.7244C62.7749 12.9198 62.9954 12.0697 63.0959 11.1757C63.1349 10.8283 63.2024 9.42718 63.1304 8.5815H53.7701L52.1038 11.9305H58.7825C58.5244 12.9887 57.9411 13.8607 57.0352 14.5174C56.1278 15.1754 55.0419 15.5007 53.7775 15.495C52.9646 15.4906 52.2057 15.3322 51.5023 15.0201C50.799 14.7079 50.1871 14.2858 49.6665 13.7538C49.1447 13.2217 48.7382 12.5974 48.4427 11.8807C48.1488 11.164 48.0032 10.3989 48.0077 9.58693C48.0122 8.77497 48.1652 8.01136 48.4667 7.2976C48.7681 6.58382 49.1822 5.96386 49.71 5.43623C50.2365 4.9086 50.8484 4.49822 51.5458 4.20069C52.2432 3.90464 52.9977 3.75807 53.812 3.761C54.9145 3.76686 55.8878 4.01016 56.7352 4.49089C57.5827 4.97162 58.238 5.66341 58.7029 6.56624L62.3985 4.83678C61.6291 3.33304 60.4923 2.15319 58.988 1.29726C57.4836 0.442783 55.7738 0.0104184 53.8586 0.000158858C52.5027 -0.00716936 51.2189 0.239058 50.007 0.735912C48.7937 1.23277 47.7378 1.91575 46.8394 2.78635C45.9411 3.65548 45.2256 4.67264 44.6962 5.83488C44.1652 6.99714 43.8983 8.24148 43.8908 9.56494C43.8833 10.8884 44.1352 12.1357 44.6437 13.3038C45.1536 14.472 45.848 15.495 46.7284 16.3728C47.6088 17.2508 48.6497 17.9455 49.848 18.4541C51.0449 18.9655 52.3392 19.2235 53.731 19.2294Z" fill="#464F61"/>
<path d="M5.01388 0.325195H0L0.946383 2.24665V16.991L0 18.9111H11.5066L12.5504 15.2733H5.01388V0.325195Z" fill="#464F61"/>
<path d="M13.9394 18.9111H25.155V15.2747H18.0219V11.1988H23.5368L24.5357 7.7047H18.0219V3.94533H25.155V0.325195H13.9394V18.9111Z" fill="#464F61"/>
<path d="M81.5843 18.9111H92.7985V15.2747H85.6668V11.1988H91.1817L92.179 7.7047H85.6668V3.94533H92.7985V0.325195H81.5843V18.9111Z" fill="#464F61"/>
<path d="M37.7282 0.325195H31.9284L33.1552 2.69515L26.457 18.9125H30.6296L32.0513 15.2865H39.5954L41.0577 18.9125H45.3112L37.7282 0.325195ZM33.4447 11.7323L35.8938 5.4872L38.2471 11.7323H33.4447Z" fill="#464F61"/>
<path d="M103.454 5.43626V13.7948H105.555V10.9691H107.724L108.249 9.13116H105.555V7.32988H108.636V5.43626H103.454Z" fill="#464F61"/>
<path d="M98.2603 5.27016C95.8126 5.27016 93.8223 7.21947 93.8223 9.61579C93.8223 12.0121 95.8126 13.9614 98.2603 13.9614C100.708 13.9614 102.698 12.0121 102.698 9.61579C102.698 7.21947 100.706 5.27016 98.2603 5.27016ZM98.2603 11.9447C96.951 11.9447 95.886 10.8997 95.886 9.61579C95.886 8.33189 96.951 7.28688 98.2603 7.28688C99.5696 7.28688 100.634 8.33189 100.634 9.61579C100.634 10.8997 99.5696 11.9447 98.2603 11.9447Z" fill="#464F61"/>
<path d="M72.1786 19.2335C70.9848 19.2335 69.9169 19.0517 68.9766 18.6897C68.0362 18.3276 67.2397 17.8103 66.5889 17.1375C65.938 16.4663 65.4355 15.6529 65.0831 14.6973C64.7306 13.7432 64.5536 12.682 64.5536 11.5154V0.325195H68.678V11.3043C68.678 12.5604 68.9766 13.5497 69.5735 14.2752C70.1704 15.0007 71.0389 15.3627 72.1786 15.3627C73.3186 15.3627 74.1869 15.0007 74.7838 14.2752C75.3807 13.5497 75.6792 12.5604 75.6792 11.3043V0.325195H79.8037V11.5168C79.8037 12.6835 79.6267 13.7446 79.2743 14.6987C78.9219 15.6529 78.4194 16.4663 77.7685 17.1391C77.1175 17.8117 76.3212 18.3276 75.3807 18.6911C74.4388 19.0517 73.3725 19.2335 72.1786 19.2335Z" fill="#464F61"/>
<path d="M103.746 29.7279L101.179 29.2456C100.024 29.0287 99.3879 28.3956 99.3879 27.4619C99.3879 26.1898 100.723 25.4292 102.013 25.4292C102.452 25.4292 104.639 25.5406 105.089 27.6715L108.627 25.9832C108.105 24.4676 106.542 21.8398 101.987 21.8398C98.3141 21.8398 95.3249 24.4765 95.3249 27.717C95.3249 30.4651 97.2056 32.4803 100.354 33.1076L102.923 33.6148C104.192 33.8624 104.949 34.5675 104.949 35.4996C104.949 36.7058 103.904 37.4386 102.221 37.4562C100.18 37.4767 98.53 35.9935 98.2751 34.5337L94.875 36.3877C95.6549 38.8691 98.0575 41.0734 102.196 41.0734C104.799 41.0734 106.407 40.09 107.297 39.2649C108.438 38.2081 109.092 36.7527 109.092 35.2725C109.089 32.4759 107.041 30.3523 103.746 29.7279Z" fill="#464F61"/>
<path d="M93.7461 27.8371C93.2407 26.707 92.5508 25.7279 91.6764 24.8969C90.8006 24.0675 89.7762 23.4137 88.6033 22.9359C87.429 22.4581 85.7581 22.1606 84.8658 22.1606H78.4345V40.745H84.8538C86.1721 40.745 87.4184 40.5119 88.5928 40.0371C89.7672 39.5608 90.7915 38.9086 91.6689 38.0804C92.5449 37.2509 93.2378 36.2733 93.7432 35.1433C94.2501 34.0147 94.5036 32.7968 94.5051 31.4909C94.5036 30.1851 94.2516 28.9671 93.7461 27.8371ZM89.8962 33.6586C89.6067 34.3298 89.2138 34.9117 88.7172 35.4057C88.2194 35.8995 87.6284 36.2924 86.9415 36.5826C86.2547 36.8727 85.5227 37.0179 84.7473 37.0179H82.499V25.9523H84.7547C85.5317 25.9523 86.2621 26.0988 86.949 26.3904C87.6344 26.6821 88.2253 27.0749 88.7233 27.5688C89.2197 28.0642 89.6111 28.6505 89.9007 29.3306C90.1887 30.0106 90.3341 30.7302 90.3325 31.488C90.3311 32.2662 90.1856 32.9888 89.8962 33.6586Z" fill="#464F61"/>
</svg>
