<svg width="68" height="26" viewBox="0 0 68 26" fill="none" xmlns="http://www.w3.org/2000/svg">
<path d="M47.7798 14.0307V25.794H45.2173L39.6819 18.15V25.794H37.2269V15.1301L36.6659 14.0307H39.8399L45.3248 21.7804V14.0307H47.7798Z" fill="#EAEEF7"/>
<path d="M22.267 25.9971C23.1121 26.0018 23.8927 25.8571 24.6089 25.5648C25.3259 25.2725 25.9439 24.8671 26.4655 24.3504C26.9862 23.8336 27.3948 23.2203 27.6911 22.5125C27.9043 22.0031 28.0417 21.465 28.1044 20.899C28.1287 20.6792 28.1707 19.7922 28.1258 19.2569H22.2913L21.2526 21.3778H25.4156C25.2548 22.0476 24.8912 22.5996 24.3265 23.0153C23.7609 23.4319 23.0841 23.6378 22.296 23.6341C21.7893 23.6313 21.3162 23.5311 20.8778 23.3335C20.4393 23.1359 20.0579 22.8687 19.7335 22.532C19.4081 22.1951 19.1548 21.7999 18.9706 21.3463C18.7873 20.8925 18.6967 20.4082 18.6995 19.8942C18.7023 19.3803 18.7976 18.8969 18.9856 18.4451C19.1735 17.9933 19.4315 17.6008 19.7606 17.2668C20.0887 16.9328 20.4702 16.673 20.9049 16.4847C21.3396 16.2973 21.8098 16.2045 22.3175 16.2064C23.0046 16.2101 23.6114 16.3641 24.1395 16.6684C24.6677 16.9727 25.0763 17.4106 25.3661 17.9821L27.6697 16.8873C27.1901 15.9354 26.4814 15.1886 25.5437 14.6468C24.6061 14.1059 23.5402 13.8322 22.3464 13.8257C21.5013 13.8211 20.701 13.977 19.9457 14.2915C19.1894 14.6059 18.5312 15.0383 17.9712 15.5894C17.4112 16.1396 16.9653 16.7834 16.6353 17.5192C16.3043 18.2549 16.138 19.0426 16.1332 19.8803C16.1286 20.7181 16.2856 21.5077 16.6026 22.2471C16.9204 22.9865 17.3533 23.6341 17.9021 24.1898C18.4508 24.7456 19.0996 25.1854 19.8466 25.5073C20.5926 25.8292 21.4004 25.9925 22.267 25.9971Z" fill="#EAEEF7"/>
<path d="M3.1253 14.0299H0L0.589908 15.2462V24.5795L0 25.795H7.17238L7.82305 23.4932H3.1253V14.0299Z" fill="#EAEEF7"/>
<path d="M8.68883 25.795H15.6799V23.4941H11.2336V20.9131H14.6712L15.2938 18.7012H11.2336V16.3215H15.6799V14.0299H8.68883V25.795Z" fill="#EAEEF7"/>
<path d="M29.0137 25.795H36.0046V23.4941H31.5584V20.9131H34.9969L35.6185 18.7012H31.5584V16.3215H36.0046V14.0299H29.0137V25.795Z" fill="#EAEEF7"/>
<path d="M33.4921 12.1725C34.3373 12.1771 35.1179 12.0324 35.834 11.7401C36.5511 11.4479 37.169 11.0424 37.6906 10.5256C38.2114 10.0089 38.6199 9.39564 38.9163 8.68771C39.1294 8.17841 39.2668 7.64029 39.3295 7.07435C39.3538 6.85447 39.3959 5.96753 39.351 5.4322H33.5164L32.4778 7.55215H36.6408C36.48 8.22204 36.1164 8.77399 35.5517 9.1897C34.9861 9.60622 34.3092 9.81217 33.5211 9.80851C33.0144 9.80575 32.5413 9.7055 32.1029 9.50792C31.6645 9.31026 31.283 9.04306 30.9586 8.70632C30.6333 8.36949 30.3799 7.97429 30.1957 7.52062C30.0125 7.06693 29.9218 6.58263 29.9246 6.06865C29.9274 5.55467 30.0228 5.07129 30.2107 4.61947C30.3986 4.16764 30.6567 3.7752 30.9857 3.4412C31.3138 3.10721 31.6953 2.84743 32.13 2.65909C32.5647 2.47168 33.035 2.37891 33.5426 2.38076C34.2298 2.38447 34.8365 2.53848 35.3647 2.84279C35.8929 3.1471 36.3014 3.58501 36.5912 4.15651L38.8948 3.06174C38.4152 2.10985 37.7066 1.363 36.7689 0.82118C35.8312 0.280287 34.7654 0.00659495 33.5716 0.000100559C32.7264 -0.0045383 31.9262 0.151327 31.1708 0.465842C30.4145 0.780356 29.7564 1.2127 29.1964 1.76379C28.6364 2.31396 28.1904 2.95784 27.8604 3.69355C27.5295 4.42928 27.3631 5.21696 27.3584 6.05473C27.3537 6.89251 27.5107 7.68204 27.8277 8.42149C28.1455 9.16094 28.5784 9.80851 29.1272 10.3642C29.676 10.92 30.3247 11.3597 31.0717 11.6817C31.8178 12.0054 32.6245 12.1687 33.4921 12.1725Z" fill="#EAEEF7"/>
<path d="M3.1253 0.205852H0L0.589908 1.42216V10.7555L0 11.971H7.17238L7.82305 9.66818H3.1253V0.205852Z" fill="#EAEEF7"/>
<path d="M8.68883 11.971H15.6799V9.66908H11.2336V7.08898H14.6712L15.2938 4.87718H11.2336V2.49744H15.6799V0.205852H8.68883V11.971Z" fill="#EAEEF7"/>
<path d="M50.8538 11.971H57.844V9.66908H53.3986V7.08898H56.8362L57.4578 4.87718H53.3986V2.49744H57.844V0.205852H50.8538V11.971Z" fill="#EAEEF7"/>
<path d="M23.5171 0.205852H19.9019L20.6666 1.70606L16.4914 11.9718H19.0923L19.9785 9.67655H24.681L25.5925 11.9718H28.2438L23.5171 0.205852ZM20.8471 7.42669L22.3737 3.47346L23.8405 7.42669H20.8471Z" fill="#EAEEF7"/>
<path d="M64.4858 3.44122V8.73231H65.7956V6.94356H67.1475L67.4746 5.78014H65.7956V4.63991H67.7158V3.44122H64.4858Z" fill="#EAEEF7"/>
<path d="M61.2485 3.33608C59.7228 3.33608 58.4822 4.57001 58.4822 6.08692C58.4822 7.60382 59.7228 8.83773 61.2485 8.83773C62.7742 8.83773 64.0147 7.60382 64.0147 6.08692C64.0147 4.57001 62.7732 3.33608 61.2485 3.33608ZM61.2485 7.56115C60.4323 7.56115 59.7685 6.89964 59.7685 6.08692C59.7685 5.27419 60.4323 4.61269 61.2485 4.61269C62.0646 4.61269 62.7284 5.27419 62.7284 6.08692C62.7284 6.89964 62.0646 7.56115 61.2485 7.56115Z" fill="#EAEEF7"/>
<path d="M44.991 12.175C44.2469 12.175 43.5812 12.06 42.9951 11.8308C42.4089 11.6016 41.9125 11.2742 41.5068 10.8483C41.101 10.4234 40.7879 9.90849 40.5682 9.30357C40.3484 8.69963 40.2381 8.02789 40.2381 7.28938V0.205852H42.809V7.15579C42.809 7.95088 42.9951 8.57712 43.3671 9.03637C43.7392 9.49563 44.2806 9.72481 44.991 9.72481C45.7016 9.72481 46.2428 9.49563 46.6149 9.03637C46.987 8.57712 47.173 7.95088 47.173 7.15579V0.205852H49.7439V7.29031C49.7439 8.02882 49.6336 8.70052 49.414 9.30447C49.1943 9.90849 48.8811 10.4234 48.4753 10.8493C48.0696 11.275 47.5732 11.6016 46.987 11.8317C46.3999 12.06 45.7352 12.175 44.991 12.175Z" fill="#EAEEF7"/>
<path d="M64.6681 18.8181L63.0676 18.5128C62.3477 18.3755 61.9514 17.9748 61.9514 17.3838C61.9514 16.5785 62.7834 16.097 63.5874 16.097C63.8613 16.097 65.2243 16.1675 65.5048 17.5164L67.7102 16.4477C67.3848 15.4883 66.4107 13.8248 63.5715 13.8248C61.282 13.8248 59.4188 15.4939 59.4188 17.5452C59.4188 19.2848 60.5911 20.5604 62.5534 20.9575L64.1548 21.2786C64.9458 21.4353 65.4179 21.8817 65.4179 22.4717C65.4179 23.2352 64.7662 23.6991 63.7173 23.7102C62.4449 23.7232 61.4166 22.7843 61.2577 21.8603L59.1383 23.0339C59.6244 24.6046 61.1221 26 63.7015 26C65.3244 26 66.3266 25.3774 66.881 24.8552C67.5924 24.1862 68 23.2649 68 22.3279C67.9982 20.5577 66.722 19.2134 64.6681 18.8181Z" fill="#EAEEF7"/>
<path d="M58.4347 17.6212C58.1196 16.9059 57.6896 16.2861 57.1445 15.7601C56.5986 15.235 55.9601 14.8212 55.229 14.5187C54.497 14.2163 53.4555 14.0279 52.8993 14.0279H48.8905V25.7921H52.8918C53.7136 25.7921 54.4904 25.6446 55.2224 25.344C55.9545 25.0425 56.5929 24.6296 57.1399 24.1054C57.6859 23.5803 58.1178 22.9614 58.4328 22.2462C58.7488 21.5318 58.9068 20.7608 58.9078 19.9341C58.9068 19.1075 58.7498 18.3365 58.4347 17.6212ZM56.0349 21.3063C55.8544 21.7312 55.6095 22.0995 55.3 22.4122C54.9897 22.7249 54.6213 22.9735 54.1932 23.1572C53.765 23.3409 53.3088 23.4328 52.8254 23.4328H51.424V16.4281H52.8301C53.3144 16.4281 53.7697 16.5209 54.1978 16.7055C54.6251 16.8901 54.9934 17.1387 55.3038 17.4514C55.6132 17.765 55.8572 18.1361 56.0377 18.5666C56.2172 18.9971 56.3078 19.4526 56.3069 19.9323C56.306 20.4249 56.2153 20.8823 56.0349 21.3063Z" fill="#EAEEF7"/>
</svg>
