<svg width="212" height="60" viewBox="0 0 212 60" fill="none" xmlns="http://www.w3.org/2000/svg">
<path d="M73.358 49.4263C73.9453 49.4263 74.2751 50.1024 73.9134 50.5652L66.7534 59.7291C66.6198 59.9001 66.4149 60 66.1979 60H43.6885C43.1012 60 42.7714 59.3239 43.133 58.8611L50.2931 49.6972C50.4267 49.5262 50.6316 49.4263 50.8486 49.4263H73.358Z" fill="white"/>
<path d="M85.3414 33.2131C85.9287 33.2131 86.2584 33.8893 85.8968 34.3521L78.7368 43.516C78.6032 43.687 78.3983 43.7869 78.1813 43.7869H55.6719C55.0846 43.7869 54.7548 43.1108 55.1164 42.648L62.2765 33.484C62.4101 33.3131 62.615 33.2131 62.832 33.2131H85.3414Z" fill="white"/>
<path d="M32.1333 32.9053L31.5021 33.7131H32.5273H55.2229L34.8603 59.5H1.44535C1.27462 59.5 1.17876 59.3034 1.28388 59.1689L8.44396 50.005C8.4828 49.9553 8.54236 49.9262 8.60544 49.9262H29.8791H30.123L30.2731 49.7341L34.6789 44.0947L35.31 43.2869H34.2849H12.294C12.1233 43.2869 12.0274 43.0903 12.1325 42.9558L29.2789 21.0104C31.0099 18.7949 33.6648 17.5 36.4763 17.5H97.1421C97.3129 17.5 97.4087 17.6965 97.3036 17.8311L90.1435 26.995C90.1047 27.0447 90.0451 27.0738 89.982 27.0738H38.5375C37.3709 27.0738 36.2694 27.611 35.5512 28.5303L32.1333 32.9053Z" fill="url(#paint0_linear_5_37443)" stroke="url(#paint1_linear_5_37443)"/>
<path d="M106.489 46.0944H108.538C108.638 46.9591 108.958 47.5419 109.497 47.8426C110.036 48.1309 110.85 48.275 111.941 48.275C112.981 48.275 113.758 48.1058 114.272 47.7674C114.785 47.4291 115.042 46.8777 115.042 46.1132C115.042 45.1357 114.604 44.5342 113.726 44.3086C112.862 44.0831 111.909 43.9013 110.869 43.7635C109.829 43.6131 108.87 43.3249 107.993 42.8988C107.128 42.4602 106.696 41.5516 106.696 40.1731C106.696 38.8823 107.128 37.9362 107.993 37.3346C108.87 36.7331 110.111 36.4324 111.715 36.4324C113.269 36.4324 114.485 36.7081 115.362 37.2595C116.239 37.8109 116.721 38.7194 116.809 39.9851H114.741C114.679 39.2207 114.378 38.7006 113.839 38.4249C113.313 38.1492 112.605 38.0114 111.715 38.0114C110.725 38.0114 109.973 38.1743 109.459 38.5001C108.945 38.8134 108.689 39.3648 108.689 40.1543C108.689 41.0817 109.121 41.6519 109.986 41.8649C110.863 42.0654 111.822 42.2409 112.862 42.3913C113.902 42.5416 114.854 42.8424 115.719 43.2936C116.596 43.7322 117.035 44.6407 117.035 46.0192C117.035 47.3601 116.602 48.3376 115.738 48.9517C114.886 49.5532 113.62 49.854 111.941 49.854C110.186 49.854 108.864 49.572 107.974 49.0081C107.084 48.4442 106.589 47.4729 106.489 46.0944ZM122.073 38.3497H117.731V36.6579H128.464V38.3497H124.103V49.6284H122.073V38.3497ZM131.901 36.6579H134.796L139.571 49.6284H137.465L136.187 46.132H130.285L129.006 49.6284H127.127L131.901 36.6579ZM130.849 44.5718H135.623L133.236 38.0302L130.849 44.5718ZM142.578 38.3497H138.236V36.6579H148.969V38.3497H144.608V49.6284H142.578V38.3497ZM149.776 46.0944H151.825C151.925 46.9591 152.244 47.5419 152.783 47.8426C153.322 48.1309 154.137 48.275 155.227 48.275C156.267 48.275 157.044 48.1058 157.558 47.7674C158.072 47.4291 158.329 46.8777 158.329 46.1132C158.329 45.1357 157.89 44.5342 157.013 44.3086C156.148 44.0831 155.196 43.9013 154.155 43.7635C153.115 43.6131 152.157 43.3249 151.279 42.8988C150.415 42.4602 149.982 41.5516 149.982 40.1731C149.982 38.8823 150.415 37.9362 151.279 37.3346C152.157 36.7331 153.397 36.4324 155.001 36.4324C156.555 36.4324 157.771 36.7081 158.648 37.2595C159.525 37.8109 160.008 38.7194 160.096 39.9851H158.028C157.965 39.2207 157.664 38.7006 157.126 38.4249C156.599 38.1492 155.891 38.0114 155.001 38.0114C154.011 38.0114 153.259 38.1743 152.746 38.5001C152.232 38.8134 151.975 39.3648 151.975 40.1543C151.975 41.0817 152.407 41.6519 153.272 41.8649C154.149 42.0654 155.108 42.2409 156.148 42.3913C157.188 42.5416 158.141 42.8424 159.005 43.2936C159.883 43.7322 160.321 44.6407 160.321 46.0192C160.321 47.3601 159.889 48.3376 159.024 48.9517C158.172 49.5532 156.906 49.854 155.227 49.854C153.472 49.854 152.15 49.572 151.261 49.0081C150.371 48.4442 149.876 47.4729 149.776 46.0944Z" fill="white"/>
<path d="M162.532 36.6579H171.498V38.2933H164.562V42.2033H170.314V43.8011H164.562V47.993H171.574V49.6284H162.532V36.6579ZM173.785 36.6579H179.067C181.072 36.6579 182.588 37.1655 183.616 38.1805C184.656 39.1831 185.176 40.8373 185.176 43.1432C185.176 45.3989 184.656 47.0469 183.616 48.087C182.588 49.1146 181.072 49.6284 179.067 49.6284H173.785V36.6579ZM179.029 47.9366C180.333 47.9366 181.335 47.6045 182.037 46.9403C182.751 46.2636 183.109 45.2109 183.109 43.7823V42.3913C183.109 40.9752 182.751 39.9475 182.037 39.3084C181.335 38.6693 180.333 38.3497 179.029 38.3497H175.815V47.9366H179.029ZM186.915 43.1432C186.915 40.712 187.435 38.9889 188.476 37.9738C189.516 36.9462 190.982 36.4324 192.874 36.4324C194.579 36.4324 195.888 36.7582 196.803 37.4098C197.73 38.049 198.288 39.0828 198.476 40.5115H196.408C196.283 39.5967 195.926 38.9575 195.337 38.5941C194.76 38.2307 193.939 38.049 192.874 38.049C191.646 38.049 190.687 38.3748 189.998 39.0264C189.321 39.6781 188.983 40.7872 188.983 42.3537V43.9139C188.983 45.4302 189.321 46.533 189.998 47.2223C190.675 47.899 191.627 48.2374 192.855 48.2374C194.196 48.2374 195.155 47.9491 195.732 47.3727C196.308 46.7837 196.621 45.8939 196.671 44.7034H193.119V43.2372H198.664V44.3086C198.664 46.1007 198.182 47.4729 197.217 48.4254C196.252 49.3778 194.798 49.854 192.855 49.854C190.976 49.854 189.516 49.3465 188.476 48.3314C187.435 47.3163 186.915 45.5869 186.915 43.1432ZM200.935 36.6579H209.902V38.2933H202.965V42.2033H208.717V43.8011H202.965V47.993H209.977V49.6284H200.935V36.6579Z" fill="#4FD5FF"/>
<g filter="url(#filter0_f_5_37443)">
<circle cx="34" cy="20" r="4" fill="#FBFEFF"/>
</g>
<g filter="url(#filter1_f_5_37443)">
<circle cx="33.5" cy="18.5" r="1.5" fill="#FBFEFF"/>
</g>
<defs>
<filter id="filter0_f_5_37443" x="14.1" y="0.1" width="39.8" height="39.8" filterUnits="userSpaceOnUse" color-interpolation-filters="sRGB">
<feFlood flood-opacity="0" result="BackgroundImageFix"/>
<feBlend mode="normal" in="SourceGraphic" in2="BackgroundImageFix" result="shape"/>
<feGaussianBlur stdDeviation="7.95" result="effect1_foregroundBlur_5_37443"/>
</filter>
<filter id="filter1_f_5_37443" x="28.8" y="13.8" width="9.4" height="9.4" filterUnits="userSpaceOnUse" color-interpolation-filters="sRGB">
<feFlood flood-opacity="0" result="BackgroundImageFix"/>
<feBlend mode="normal" in="SourceGraphic" in2="BackgroundImageFix" result="shape"/>
<feGaussianBlur stdDeviation="1.6" result="effect1_foregroundBlur_5_37443"/>
</filter>
<linearGradient id="paint0_linear_5_37443" x1="31.1339" y1="17" x2="49.2937" y2="60" gradientUnits="userSpaceOnUse">
<stop stop-color="#B9EEFF"/>
<stop offset="0.361975" stop-color="#4FD5FF"/>
</linearGradient>
<linearGradient id="paint1_linear_5_37443" x1="31.5" y1="17" x2="49.2937" y2="60" gradientUnits="userSpaceOnUse">
<stop stop-color="white"/>
<stop offset="0.456552" stop-color="white" stop-opacity="0"/>
</linearGradient>
</defs>
</svg>
