<svg width="86" height="36" viewBox="0 0 86 36" fill="none" xmlns="http://www.w3.org/2000/svg">
<path d="M57.1875 24.941H49.8721C49.7678 24.941 49.6634 24.941 49.562 24.941C49.362 24.941 49.3127 24.9988 49.3127 25.2124C49.3127 26.3482 49.3127 27.4829 49.3127 28.6167C49.3127 28.8708 49.3533 28.9054 49.6026 28.9054C49.7678 28.9054 49.933 28.9054 50.0982 28.9054H51.5908C51.7821 28.9054 51.8372 29.0151 51.7357 29.1941C51.5746 29.4865 51.3522 29.741 51.0836 29.9403C50.8151 30.1395 50.5067 30.2789 50.1793 30.3491C49.5115 30.5248 48.8048 30.484 48.1618 30.2328C47.5187 29.9815 46.9727 29.5328 46.6028 28.9516C46.183 28.3298 45.9618 27.5961 45.968 26.8467C45.968 25.403 46.5477 24.2943 47.8085 23.5637C49.0693 22.8332 51.0662 22.9401 52.156 23.9969C52.214 24.0546 52.2806 24.1066 52.3386 24.1643C52.3572 24.1894 52.3814 24.2098 52.4094 24.2238C52.4373 24.2379 52.4682 24.2452 52.4995 24.2452C52.5308 24.2452 52.5616 24.2379 52.5895 24.2238C52.6175 24.2098 52.6417 24.1894 52.6603 24.1643L54.1095 22.7957C54.7848 22.1547 55.463 21.5166 56.1383 20.8727C56.2658 20.7514 56.2629 20.6879 56.1383 20.5638C55.3663 19.8123 54.4702 19.199 53.4892 18.7505C52.366 18.2646 51.1623 17.9895 49.9388 17.9391C49.027 17.8782 48.1113 17.962 47.2259 18.1874C45.9712 18.5063 44.8052 19.1036 43.8149 19.9348C42.8247 20.7659 42.036 21.8094 41.5077 22.9872C40.9795 24.1649 40.7254 25.4464 40.7645 26.7358C40.8036 28.0252 41.1349 29.289 41.7336 30.4328C42.5859 32.0816 43.9552 33.4081 45.6334 34.2107C47.3117 35.0133 49.207 35.2481 51.0315 34.8794C54.5471 34.2413 56.6397 31.6167 57.1324 28.6744C57.285 27.4669 57.319 26.2475 57.2339 25.0334C57.2208 25.0015 57.2053 24.9706 57.1875 24.941Z" fill="#464F61"/>
<path d="M73.0037 18.4387C73.0067 18.4132 73.0041 18.3873 72.996 18.3629C72.9879 18.3385 72.9745 18.3162 72.9569 18.2975C72.9392 18.2788 72.9176 18.2641 72.8937 18.2546C72.8697 18.2451 72.844 18.2409 72.8182 18.2423C72.6733 18.2423 72.5284 18.2423 72.3835 18.2423C70.9952 18.2423 69.6069 18.2423 68.2186 18.2423C67.4273 18.2423 67.5288 18.1384 67.5259 18.9266C67.5259 21.7158 67.5259 24.507 67.5259 27.3C67.5336 27.5682 67.5122 27.8363 67.4621 28.0999C67.3793 28.4975 67.1649 28.8559 66.8532 29.1176C66.5416 29.3794 66.1508 29.5294 65.7434 29.5435C65.3257 29.5595 64.9152 29.4319 64.5807 29.1822C64.2461 28.9325 64.0079 28.5759 63.9059 28.172C63.8493 27.9309 63.8268 27.6831 63.8392 27.4358C63.8392 24.5869 63.8392 21.737 63.8392 18.8862C63.8421 18.7215 63.8363 18.5566 63.8218 18.3925C63.8144 18.3649 63.8002 18.3396 63.7805 18.3189C63.7607 18.2982 63.7361 18.2828 63.7088 18.2741C63.6279 18.2567 63.5449 18.2508 63.4624 18.2568H58.7381C58.6557 18.2513 58.573 18.2562 58.4918 18.2712C58.464 18.2802 58.4388 18.2957 58.4181 18.3162C58.3975 18.3368 58.382 18.3619 58.3729 18.3896C58.3729 18.5513 58.3729 18.7188 58.3729 18.8833V23.405C58.3729 24.8487 58.3729 26.2924 58.3729 27.736C58.3688 28.3976 58.4576 29.0566 58.6367 29.6937C58.903 30.6569 59.3651 31.5552 59.9943 32.3331C60.6235 33.111 61.4064 33.7519 62.2945 34.2159C63.1826 34.6799 64.1569 34.9572 65.157 35.0306C66.1571 35.104 67.1617 34.972 68.1084 34.6427C69.541 34.1552 70.7854 33.2349 71.6685 32.01C72.5516 30.7851 73.0295 29.3163 73.0356 27.8082C73.0675 24.7534 73.0356 21.6956 73.0356 18.6408C73.0066 18.5628 73.0037 18.4993 73.0037 18.4387Z" fill="#464F61"/>
<path d="M18.9875 22.4955H24.2103C24.416 22.5202 24.6245 22.5055 24.8247 22.4522C24.8914 21.9815 24.9059 19.2443 24.8247 18.2395H13.4806C13.3357 18.2395 13.2487 18.2915 13.2487 18.4532C13.2487 18.6148 13.2487 18.8256 13.2487 19.0104V34.0652C13.2487 34.1865 13.2487 34.3107 13.2487 34.4348C13.2487 34.6918 13.2893 34.7235 13.5386 34.7235C13.6835 34.7235 13.8284 34.7235 13.9733 34.7235H24.4827C24.874 34.7235 24.8798 34.7236 24.8827 34.354C24.8827 33.1557 24.8827 31.9574 24.8827 30.7592C24.8827 30.6985 24.8827 30.6379 24.8827 30.5773C24.8814 30.5457 24.8686 30.5157 24.8468 30.4929C24.8249 30.47 24.7954 30.4559 24.7638 30.4531C24.5991 30.4377 24.4337 30.431 24.2682 30.4329H19.9758C19.6048 30.4329 19.2367 30.4127 18.8657 30.404C18.7034 30.0258 18.802 29.6331 18.7962 29.2491C18.7962 28.5417 18.7121 28.6225 19.4164 28.6196C20.7207 28.6196 22.0249 28.6196 23.3321 28.6196C23.6219 28.6196 23.6625 28.5879 23.6654 28.3107C23.6654 27.0922 23.6654 25.8737 23.6654 24.6552C23.6654 24.3405 23.648 24.329 23.2915 24.3261H19.0019C18.886 24.3261 18.7991 24.2828 18.7962 24.1528C18.7962 23.6591 18.7962 23.1625 18.7962 22.6687C18.7817 22.5446 18.8715 22.4955 18.9875 22.4955Z" fill="#464F61"/>
<path d="M85.8405 30.6379C85.8409 30.6123 85.836 30.5868 85.8262 30.5631C85.8164 30.5394 85.8018 30.518 85.7833 30.5001C85.7648 30.4823 85.7429 30.4684 85.7188 30.4593C85.6948 30.4502 85.6691 30.4461 85.6434 30.4473H85.1478C83.6754 30.4473 82.2031 30.4473 80.7336 30.4473C80.4251 30.4739 80.1144 30.4613 79.809 30.4098C79.6612 30.0951 79.7569 29.7601 79.7453 29.4368C79.7453 29.1942 79.6322 28.8939 79.7974 28.7207C79.9626 28.5474 80.3046 28.6398 80.5655 28.6369C81.8292 28.6369 83.0928 28.6369 84.3565 28.6369C84.5826 28.6369 84.6058 28.6052 84.6174 28.3886C84.6174 28.3482 84.6174 28.3049 84.6174 28.2645C84.6174 27.0653 84.6174 25.8679 84.6174 24.6726C84.6303 24.5559 84.5993 24.4386 84.5304 24.3434H80.3974C80.2322 24.3434 80.0641 24.3434 79.8989 24.3434C79.8784 24.3447 79.8578 24.3416 79.8386 24.3343C79.8194 24.3271 79.802 24.3159 79.7874 24.3014C79.7729 24.2869 79.7616 24.2695 79.7544 24.2504C79.7471 24.2313 79.744 24.2108 79.7453 24.1904C79.7453 23.6938 79.7453 23.1971 79.7453 22.7034C79.7447 22.6778 79.7496 22.6525 79.7597 22.629C79.7698 22.6055 79.7848 22.5844 79.8038 22.5671C79.8227 22.5499 79.8451 22.5369 79.8696 22.529C79.894 22.5212 79.9198 22.5186 79.9453 22.5215H80.4409C82.0784 22.5215 83.716 22.5215 85.368 22.5215C85.5246 22.5215 85.6955 22.5763 85.8579 22.4204V22.1317C85.8579 21.0171 85.8579 19.9026 85.8579 18.7881C85.8579 18.2308 85.8984 18.2712 85.3072 18.2712H74.7746C74.6102 18.2479 74.4426 18.2627 74.2848 18.3145C74.2181 18.866 74.2123 34.1749 74.2848 34.7178C74.4808 34.7778 74.6877 34.7936 74.8906 34.764H85.5217C85.8115 34.764 85.8405 34.7322 85.8434 34.4464C85.8434 33.2279 85.8434 32.0123 85.8434 30.7938C85.847 30.7419 85.846 30.6897 85.8405 30.6379Z" fill="#464F61"/>
<path d="M38.7715 25.045C38.0798 22.9719 37.3861 20.8997 36.6905 18.8285C36.4934 18.2366 36.4905 18.2366 35.8934 18.2337H33.2849C32.6009 18.2337 31.9169 18.2337 31.2329 18.2337C31.1612 18.2249 31.0887 18.2431 31.0297 18.2847C30.9707 18.3264 30.9295 18.3885 30.9141 18.4589C30.8735 18.5744 30.8359 18.6928 30.7982 18.8112L27.8564 27.6148C27.1318 29.7861 26.4072 31.9574 25.6826 34.1287C25.5849 34.3151 25.5436 34.5258 25.5638 34.7351H30.6793C30.9692 34.7351 30.9692 34.7149 31.059 34.4464C31.0822 34.3655 31.0967 34.2847 31.1141 34.2038C31.2503 33.6437 31.3836 33.0806 31.5228 32.5205C31.5355 32.4501 31.5739 32.387 31.6307 32.3432C31.6874 32.2995 31.7584 32.2783 31.83 32.2837C33.0936 32.2837 34.3573 32.2837 35.6239 32.2837C35.8848 32.2837 35.8963 32.301 35.9601 32.5522C36.1195 33.1932 36.2702 33.8342 36.4354 34.4752C36.4992 34.7264 36.5108 34.7264 36.7687 34.738H41.6177C41.718 34.7523 41.8203 34.7319 41.9075 34.6802C41.9626 34.4839 41.8495 34.3193 41.7944 34.149C40.7878 31.1114 39.7801 28.0768 38.7715 25.045ZM32.627 27.9497C32.9671 26.533 33.3062 25.1182 33.6443 23.7053C33.6443 23.6504 33.7081 23.6071 33.7806 23.509C34.1574 25.0133 34.508 26.4714 34.8413 27.9353C34.1066 28.0302 33.3629 28.035 32.627 27.9497Z" fill="#464F61"/>
<path d="M16.2601 12.9151C16.2978 12.9873 16.3326 13.0652 16.3732 13.1345C17.3365 14.7626 18.8202 16.0216 20.5869 16.71C22.3535 17.3983 24.3009 17.4763 26.1174 16.9315C27.1872 16.6356 28.1847 16.1242 29.0481 15.4289C29.9116 14.7336 30.6226 13.8692 31.1373 12.8891C31.304 12.7319 31.4244 12.5322 31.4851 12.3116C32.0131 11.1649 32.2766 9.91484 32.2561 8.65334C32.2609 7.55681 32.0457 6.47036 31.6232 5.45785C31.2006 4.44534 30.5792 3.52717 29.7954 2.75729C28.8964 1.8221 27.7901 1.10963 26.5651 0.676929C25.34 0.244224 24.0303 0.103321 22.7408 0.265498C21.4386 0.395828 20.1865 0.834383 19.0889 1.54461C17.3457 2.65716 16.0645 4.35963 15.4813 6.33859C14.8982 8.31755 15.0523 10.4398 15.9152 12.3145C15.9726 12.5425 16.092 12.7503 16.2601 12.9151ZM23.6799 5.69666C24.4935 5.70197 25.2723 6.02652 25.8474 6.59997C26.4225 7.17343 26.7476 7.94958 26.7521 8.76017C26.7462 9.56148 26.4255 10.3286 25.8589 10.8974C25.2923 11.4662 24.5247 11.7914 23.7204 11.8035C23.3166 11.8046 22.9165 11.726 22.5434 11.5721C22.1702 11.4183 21.8314 11.1922 21.5465 10.907C21.2616 10.6219 21.0363 10.2833 20.8836 9.91079C20.7309 9.53832 20.6539 9.13939 20.6569 8.73707C20.6134 7.09415 22.0684 5.69088 23.6799 5.6851V5.69666Z" fill="#464F61"/>
<path d="M11.8054 30.4444C11.6402 30.4444 11.475 30.4444 11.3098 30.4444H6.58257C5.8493 30.4444 5.92178 30.5108 5.91888 29.7803V29.6561C5.91888 26.1047 5.91888 22.5532 5.91888 19.0017C5.91888 18.8573 5.91888 18.7129 5.91888 18.5686C5.91888 18.2481 5.91888 18.2481 5.62905 18.2394H0.904744C0.76084 18.2201 0.614374 18.237 0.478697 18.2885C0.412036 18.9035 0.412036 34.1835 0.478697 34.6859C0.983008 34.7581 11.5214 34.7581 12.0373 34.6859C12.0538 34.6079 12.0644 34.5288 12.0691 34.4492V30.7909C12.0691 30.7504 12.0691 30.7071 12.0691 30.6667C12.0431 30.5021 11.9445 30.4473 11.8054 30.4444Z" fill="#464F61"/>
<path d="M74.4297 4.75539C74.5949 4.75539 74.7601 4.75539 74.9253 4.75539C75.5891 4.75539 76.2499 4.75539 76.9136 4.75539C77.2411 4.75539 77.273 4.7958 77.2875 5.10475C77.2875 5.26933 77.2875 5.43392 77.2875 5.5985C77.2875 8.13651 77.2701 10.6745 77.2672 13.2125C77.24 13.4383 77.2538 13.6672 77.3078 13.8882L77.2904 16.1115C77.2904 16.3367 77.2904 16.5619 77.2904 16.79C77.2899 16.8155 77.2948 16.8408 77.3046 16.8644C77.3145 16.8879 77.3292 16.9092 77.3477 16.9268C77.3662 16.9445 77.3882 16.9581 77.4122 16.9668C77.4363 16.9756 77.4619 16.9793 77.4875 16.9777C77.529 16.9806 77.5706 16.9806 77.6121 16.9777H82.4436C82.7335 16.9777 82.7798 16.9517 82.7769 16.6745C82.7769 15.7072 82.7566 14.7399 82.745 13.7871C82.8225 13.5948 82.8445 13.3849 82.8088 13.1808C82.8088 10.9517 82.8088 8.72553 82.7856 6.49647C82.7856 6.02005 82.7856 5.54652 82.7856 5.07299C82.7856 4.842 82.8581 4.78426 83.0755 4.78426C83.4464 4.78426 83.8203 4.78426 84.1942 4.78426C84.6493 4.78426 85.1043 4.78426 85.5593 4.78426C85.7622 4.78426 85.7941 4.73806 85.8057 4.51862C85.8057 4.43489 85.8057 4.35404 85.8057 4.27031C85.8057 3.2193 85.8057 2.16539 85.7854 1.11439C85.7854 0.560009 85.8173 0.571575 85.2434 0.571575H74.9891C74.8442 0.571575 74.6993 0.571575 74.5543 0.571575C74.3051 0.571575 74.2645 0.606223 74.2645 0.860313C74.2471 2.07879 74.2336 3.29629 74.2239 4.51284V4.57348C74.25 4.67165 74.3051 4.7525 74.4297 4.75539Z" fill="#464F61"/>
<path d="M34.082 12.8891C35.0305 14.6741 36.6078 16.0469 38.5106 16.7438C40.3917 17.4685 42.319 17.3819 44.2551 17.0094C44.545 16.9517 44.545 16.9343 44.545 16.6485C44.545 15.301 44.5372 13.9613 44.5218 12.6292C44.5884 12.0095 44.5942 11.3848 44.5392 10.764C44.3914 10.7062 44.345 10.7986 44.287 10.8448C43.567 11.3761 42.7132 11.6979 41.8206 11.7746C41.4303 11.8175 41.0353 11.7781 40.6612 11.6591C39.9677 11.4561 39.3686 11.015 38.9702 10.4142C38.5718 9.81327 38.3998 9.09129 38.4846 8.37613C38.5671 7.64021 38.9183 6.96022 39.4715 6.4656C40.0246 5.97097 40.741 5.69627 41.4843 5.69376C42.4451 5.68479 43.385 5.97334 44.174 6.51954C44.2696 6.58595 44.3421 6.70722 44.4638 6.68123C44.5421 6.64659 44.5392 6.58018 44.5363 6.52532C44.5363 4.62543 44.5257 2.72551 44.5044 0.825616C44.5044 0.594626 44.458 0.536889 44.2146 0.493578C43.6668 0.378083 43.1103 0.337657 42.5538 0.274134C41.1478 0.106558 39.722 0.288085 38.4034 0.80253C37.2921 1.23622 36.2838 1.89607 35.4429 2.73993C34.6021 3.5838 33.9472 4.59311 33.52 5.7034C33.0929 6.81368 32.9029 8.00051 32.9622 9.18808C33.0216 10.3756 33.3289 11.5378 33.8646 12.6004C33.9081 12.7159 33.9458 12.8458 34.082 12.8891Z" fill="#464F61"/>
<path d="M61.4423 11.3155L61.4162 16.5792C61.4012 16.7042 61.4202 16.8308 61.4713 16.9459C61.6258 17.003 61.7927 17.0189 61.9553 16.9921H72.456C72.5777 16.9921 72.7023 16.9921 72.827 16.9921C72.9516 16.9921 73.0037 16.9055 73.0066 16.79C73.0095 16.6745 73.0066 16.5821 73.0066 16.481C73.0066 15.3636 73.0066 14.2491 73.0066 13.1346C73.0066 13.0191 73.0443 12.8891 72.9197 12.7852C72.7209 12.7412 72.5162 12.7305 72.3139 12.7534H67.5897C67.4244 12.7534 67.2592 12.7534 67.094 12.7534C67.0683 12.7547 67.0426 12.7506 67.0187 12.7413C66.9947 12.7319 66.9729 12.7177 66.9549 12.6994C66.9368 12.6811 66.9228 12.6593 66.9138 12.6352C66.9049 12.6112 66.9011 12.5856 66.9028 12.56C66.9028 12.1471 66.9027 11.7342 66.8825 11.3213C66.9002 11.2847 66.9129 11.2458 66.9201 11.2058C66.9201 11.0441 66.9752 10.9171 67.1694 10.9171H71.1459C71.3561 10.9446 71.5698 10.9259 71.7719 10.8622C71.7886 10.7852 71.7993 10.707 71.8038 10.6283C71.8038 9.41177 71.8038 8.19523 71.8038 6.97868C71.8038 6.91516 71.8038 6.85452 71.8038 6.79388C71.8032 6.7522 71.7866 6.71231 71.7576 6.68229C71.7285 6.65228 71.6891 6.63438 71.6473 6.63219C71.4821 6.63219 71.3169 6.63219 71.1517 6.63219H67.6099C67.4447 6.63219 67.2795 6.63219 67.1143 6.63219C67.0936 6.63339 67.0728 6.63029 67.0533 6.6231C67.0338 6.61591 67.016 6.60478 67.001 6.59041C66.986 6.57603 66.9742 6.55873 66.9663 6.53958C66.9583 6.52044 66.9545 6.49986 66.9549 6.47915C66.9549 5.98541 66.9549 5.49166 66.9549 4.99503C66.9552 4.96937 66.9608 4.94405 66.9714 4.92063C66.9819 4.8972 66.9971 4.87618 67.0162 4.85886C67.0352 4.84154 67.0576 4.82829 67.0819 4.81993C67.1063 4.81157 67.1321 4.80828 67.1578 4.81025H72.3748C72.5848 4.83874 72.7985 4.821 73.0008 4.75828C73.047 4.60292 73.0599 4.4396 73.0385 4.27897C73.0385 3.26838 73.0318 2.2578 73.0182 1.24722C73.0182 0.539809 73.0936 0.594666 72.3371 0.594666H61.5611C61.4745 0.731141 61.4395 0.89393 61.4626 1.05377C61.4452 4.31073 61.4288 7.56962 61.4133 10.8304C61.4133 10.9517 61.3872 11.0816 61.4915 11.1798C61.4423 11.1914 61.4423 11.252 61.4423 11.3155Z" fill="#464F61"/>
<path d="M45.8058 16.611C45.8058 16.6745 45.8058 16.7351 45.8058 16.7958C45.8046 16.8212 45.8087 16.8467 45.8178 16.8705C45.827 16.8943 45.841 16.916 45.8589 16.9342C45.8769 16.9524 45.8984 16.9666 45.9222 16.9761C45.946 16.9856 45.9715 16.99 45.997 16.9892C46.0811 16.9892 46.1622 16.9892 46.2463 16.9892H51.0836C51.2112 16.9892 51.2633 16.9113 51.2691 16.7958C51.2691 16.7553 51.2691 16.712 51.2691 16.6716L51.243 11.789L51.5503 11.8064C51.5771 11.8839 51.6101 11.9592 51.6488 12.0316C52.5908 13.5821 53.5385 15.1326 54.4747 16.686C54.5203 16.7868 54.596 16.8711 54.6914 16.9274C54.7868 16.9837 54.8974 17.0093 55.008 17.0008C56.831 17.0008 58.6541 17.0008 60.4771 17.0008C60.5338 16.9951 60.59 16.9855 60.6452 16.9719C60.6742 16.842 60.596 16.764 60.5409 16.6831C60.2511 16.25 59.9612 15.8169 59.6714 15.3925L57.0629 11.5494C57.0629 11.3877 56.9528 11.2895 56.8774 11.1711C56.489 10.5937 56.092 10.0162 55.7181 9.41848C55.2022 8.62734 55.1732 8.91032 55.7181 8.09608C57.26 5.74575 58.8164 3.40697 60.3554 1.05953C60.4511 0.912272 60.6221 0.790987 60.5757 0.557109H54.9181C54.8462 0.549384 54.7736 0.562767 54.7093 0.595598C54.6449 0.628429 54.5916 0.67928 54.5558 0.741906C54.4718 0.886275 54.3761 1.03065 54.2892 1.16058L51.7821 5.22024C51.7068 5.3444 51.6314 5.46854 51.5532 5.58981C51.5097 5.65911 51.4488 5.73419 51.359 5.69088C51.3165 5.64883 51.2925 5.59172 51.2923 5.53208C51.2923 5.07876 51.2923 4.62543 51.2749 4.16923C51.2604 3.0778 51.2488 1.98348 51.2286 0.889165C51.2286 0.600427 51.1967 0.562887 50.9126 0.559999C50.2054 0.559999 49.5011 0.559999 48.7968 0.559999H46.1246C45.8695 0.559999 45.8348 0.606197 45.8348 0.848737C45.8348 0.949796 45.8348 1.05374 45.8348 1.15769L45.7913 11.3155C45.7709 11.4803 45.7857 11.6476 45.8348 11.8064C45.8212 13.4021 45.8116 15.0037 45.8058 16.611Z" fill="#464F61"/>
<path d="M0.42359 16.6745C0.42359 16.9632 0.455467 16.9921 0.745301 16.9921H5.57394C5.86377 16.9921 5.90145 16.9748 5.90145 16.6832C5.90145 15.4301 5.8918 14.1789 5.87248 12.9296C6.0058 12.6582 5.91015 12.3521 5.94203 12.0836C5.94203 11.9912 5.91306 11.8728 6.09855 11.841C6.24057 12.0691 6.38836 12.3146 6.54197 12.5513C6.60574 12.6466 6.62894 12.7881 6.77966 12.8054C8.42591 12.8054 10.0693 12.8054 11.7068 12.8054C10.0606 12.8054 8.41722 12.8054 6.77966 12.8054C6.80625 12.8817 6.83819 12.956 6.87529 13.0277C7.61147 14.2462 8.35923 15.456 9.08382 16.6803C9.13669 16.7861 9.22017 16.8738 9.32348 16.9319C9.4268 16.9901 9.54521 17.0161 9.66349 17.0066C11.4431 17.0066 13.2227 17.0066 15.0022 17.0066C15.0921 17.0066 15.2109 17.0585 15.2921 16.8795C14.3878 15.4907 13.4922 14.0614 12.5474 12.6639C12.5474 12.5282 12.4604 12.4387 12.3966 12.3348C12.1068 11.867 11.788 11.4022 11.4895 10.9286C11.4141 10.8102 11.2981 10.7063 11.33 10.5273C11.3796 10.5008 11.431 10.4777 11.4836 10.458C12.0388 10.2832 12.5483 9.98834 12.9757 9.5945C13.4031 9.20066 13.7378 8.71759 13.9559 8.17983C14.3306 7.34724 14.4995 6.43734 14.4486 5.52633C14.439 4.66394 14.1989 3.81967 13.7532 3.0803C13.3075 2.34094 12.6722 1.73315 11.9126 1.31941C11.034 0.808154 10.0316 0.546516 9.01426 0.562919C6.38257 0.562919 3.75089 0.562919 1.1192 0.562919C0.391715 0.562919 0.458393 0.499396 0.446799 1.2299C0.446799 1.25012 0.446799 1.27033 0.446799 1.29055L0.403317 12.4994C0.379976 12.6842 0.394777 12.8719 0.446799 13.0508C0.435206 14.2462 0.426488 15.4589 0.42359 16.6745ZM5.90435 5.099C5.90435 4.81026 5.95651 4.75829 6.21736 4.75251C6.52748 4.75251 6.83763 4.73808 7.14775 4.75251C7.39158 4.75552 7.63238 4.80653 7.85634 4.90263C8.0803 4.99872 8.28296 5.138 8.45267 5.31244C8.62239 5.48688 8.7558 5.69302 8.84521 5.91903C8.93463 6.14503 8.97828 6.38643 8.97368 6.62931C8.96837 7.11008 8.77373 7.56952 8.43166 7.90868C8.08958 8.24785 7.62746 8.43958 7.14485 8.44258C6.85502 8.44258 6.56518 8.44258 6.27535 8.44258C5.98551 8.44258 5.93333 8.3935 5.93043 8.07011C5.93043 7.57348 5.93043 7.07973 5.93043 6.5831H5.90725L5.90435 5.099Z" fill="#464F61"/>
</svg>
