<svg width="23" height="22" viewBox="0 0 23 22" fill="none" xmlns="http://www.w3.org/2000/svg">
<path fill-rule="evenodd" clip-rule="evenodd" d="M8.12737 6.80563L5.52521 0L10.0171 6.05433L9.0989 8.93778L8.64344 8.35386L9.87784 12.0179L8.61855 10.4443L6.75124 16.3134H6.21947L6.40081 16.8304L6.04303 16.3134H3.96252L0 3.92835H1.08559L0.722909 2.89668L1.43847 3.92835H2.66374L5.34708 12.7846C5.46961 12.4121 5.62889 11.9245 5.82248 11.3192C5.91142 11.0307 6.02317 10.6696 6.15748 10.2355L6.15757 10.2352L6.1578 10.2345L6.15798 10.2339C6.31223 9.73536 6.49622 9.14072 6.70958 8.4496C6.97609 7.58545 7.20933 6.81945 7.40794 6.1516L8.12737 6.80563ZM10.0614 5.91519L10.6942 3.92835H9.37037L10.0614 5.91519ZM19.2678 21.4223L16.3845 14.5468L17.8447 16.4188H18.7368C19.1755 16.4188 19.6313 16.2864 20.0993 16.0267C20.3052 15.9017 20.5723 15.6738 20.9031 15.3454C21.2339 14.9999 21.4667 14.7254 21.6064 14.5196C21.6505 14.451 21.6897 14.3799 21.724 14.3088L22.3979 15.2817L21.898 13.8555C21.9495 13.6594 21.9764 13.4536 21.9764 13.238V12.02C21.9764 11.4834 21.8245 10.9884 21.5231 10.535C21.2192 10.0792 20.8002 9.77779 20.2635 9.62586L15.0194 8.2021L14.9581 8.07712V6.98418C14.9581 6.96947 14.9924 6.92291 15.061 6.8396C15.1443 6.74403 15.2473 6.63865 15.3722 6.53083C15.5095 6.40585 15.6246 6.31763 15.7227 6.26127H18.5702C19.0382 6.57739 19.4034 7.01113 19.6656 7.5625L21.9985 6.90086C21.8049 6.40585 21.5721 5.96475 21.2952 5.58002C20.4571 4.42336 19.5553 3.84504 18.5922 3.84504H15.6589C15.2326 3.84504 14.7866 3.97737 14.3185 4.23957C14.098 4.3768 13.8161 4.6096 13.4731 4.94043C13.1422 5.27125 12.907 5.53101 12.7698 5.7246C12.5492 6.06768 12.4389 6.50142 12.4389 7.02584V8.16044C12.4389 8.69711 12.5835 9.19211 12.8727 9.64791C13.1766 10.1013 13.6029 10.4027 14.1543 10.5546C14.7866 10.7213 15.6884 10.9614 16.8573 11.2775C18.0409 11.5936 18.8814 11.8215 19.3764 11.9588L19.4377 12.0838V13.3017C19.4377 13.3139 19.396 13.3703 19.3152 13.4659C19.2441 13.5492 19.1485 13.6447 19.026 13.755C18.901 13.8653 18.7907 13.9486 18.6952 14.0025H15.556C15.2399 13.7967 14.8821 13.336 14.4827 12.6204L13.7843 12.8361L11.819 10.3806L12.5571 12.4464L13.5461 14.8048L12.3546 13.2772L12.1498 13.3409C12.3164 13.8089 12.5492 14.25 12.8531 14.6642C13.6789 15.8331 14.5856 16.4188 15.5781 16.4188H15.8869L19.2678 21.4223Z" fill="white"/>
</svg>
