<svg width="24" height="24" viewBox="0 0 24 24" fill="none" xmlns="http://www.w3.org/2000/svg">
<g clip-path="url(#clip0_5_45649)">
<path d="M8.29 20.251C15.837 20.251 19.965 13.998 19.965 8.57596C19.965 8.39796 19.965 8.22096 19.953 8.04596C20.7562 7.46448 21.4493 6.74457 22 5.91996C21.2511 6.25196 20.4566 6.46972 19.643 6.56596C20.4996 6.05302 21.1408 5.24631 21.447 4.29596C20.6417 4.77384 19.7607 5.11069 18.842 5.29196C18.2234 4.63372 17.405 4.19779 16.5136 4.05166C15.6222 3.90553 14.7075 4.05736 13.9111 4.48363C13.1147 4.9099 12.4811 5.58683 12.1083 6.40962C11.7355 7.2324 11.6444 8.15514 11.849 9.03496C10.2176 8.9532 8.6216 8.52928 7.16465 7.79073C5.70769 7.05217 4.42233 6.01548 3.392 4.74796C2.86732 5.65116 2.70659 6.72038 2.94254 7.73792C3.17848 8.75547 3.79337 9.64483 4.662 10.225C4.00926 10.2061 3.37063 10.0305 2.8 9.71296V9.76496C2.80039 10.7123 3.1284 11.6303 3.7284 12.3633C4.3284 13.0964 5.16347 13.5993 6.092 13.787C5.48781 13.9517 4.85389 13.9756 4.239 13.857C4.50116 14.6724 5.01168 15.3856 5.69913 15.8966C6.38658 16.4076 7.21657 16.6909 8.073 16.707C7.22212 17.3755 6.24779 17.8698 5.20573 18.1615C4.16367 18.4532 3.07432 18.5366 2 18.407C3.8766 19.6113 6.06019 20.2501 8.29 20.247" fill="#0B0C0D"/>
</g>
<defs>
<clipPath id="clip0_5_45649">
<rect width="24" height="24" fill="white"/>
</clipPath>
</defs>
</svg>
