<svg width="165" height="25" viewBox="0 0 165 25" fill="none" xmlns="http://www.w3.org/2000/svg">
<path d="M146.674 5.41081H152.551V23.4091C152.551 23.518 152.594 23.6226 152.671 23.6996C152.748 23.7767 152.852 23.82 152.961 23.82H156.331C156.44 23.82 156.544 23.7767 156.622 23.6996C156.699 23.6226 156.742 23.518 156.742 23.4091V5.41081H164.138C164.186 5.41007 164.232 5.39634 164.272 5.37111C164.312 5.34588 164.345 5.31013 164.366 5.26774C164.387 5.22535 164.396 5.17796 164.392 5.13073C164.389 5.0835 164.372 5.03824 164.344 4.99989L161.796 1.83581C161.69 1.70969 161.558 1.60776 161.409 1.53688C161.26 1.466 161.098 1.42781 160.933 1.42489H146.633C146.524 1.42489 146.42 1.46819 146.343 1.54525C146.266 1.62232 146.222 1.72683 146.222 1.83581V4.99989C146.239 5.10984 146.293 5.21067 146.376 5.28548C146.458 5.3603 146.563 5.40455 146.674 5.41081ZM4.61972 23.4502L21.8783 1.83581C21.9062 1.79746 21.9229 1.75221 21.9268 1.70498C21.9307 1.65775 21.9216 1.61036 21.9004 1.56798C21.8792 1.52559 21.8467 1.48982 21.8066 1.4646C21.7665 1.43937 21.7202 1.42563 21.6729 1.42489H17.3993C17.2345 1.42781 17.0722 1.466 16.9233 1.53688C16.7745 1.60776 16.6425 1.70969 16.5364 1.83581L4.29098 17.1631V1.83581C4.29098 1.72683 4.24769 1.62232 4.17063 1.54525C4.09356 1.46819 3.98904 1.42489 3.88006 1.42489H0.510528C0.401546 1.42489 0.297027 1.46819 0.219964 1.54525C0.142902 1.62232 0.0996094 1.72683 0.0996094 1.83581V23.4502C0.0996094 23.5591 0.142902 23.6637 0.219964 23.7407C0.297027 23.8178 0.401546 23.8611 0.510528 23.8611H3.79788C3.95585 23.8532 4.11047 23.8126 4.25194 23.7419C4.39341 23.6712 4.51864 23.5718 4.61972 23.4502ZM16.824 23.4502L22.7412 16.0125L28.6996 23.4502C28.8057 23.5763 28.9377 23.6782 29.0865 23.7491C29.2354 23.82 29.3977 23.8581 29.5625 23.8611H32.8498C32.9588 23.8611 33.0634 23.8178 33.1404 23.7407C33.2175 23.6637 33.2608 23.5591 33.2608 23.4502V1.83581C33.2608 1.72683 33.2175 1.62232 33.1404 1.54525C33.0634 1.46819 32.9588 1.42489 32.8498 1.42489H30.0967C29.7655 1.42192 29.438 1.49437 29.139 1.63676C28.84 1.77915 28.5773 1.98775 28.3708 2.24673L11.441 23.4502C11.4131 23.4885 11.3964 23.5338 11.3925 23.581C11.3886 23.6282 11.3977 23.6756 11.4189 23.718C11.4401 23.7604 11.4725 23.7961 11.5127 23.8214C11.5528 23.8466 11.5991 23.8603 11.6464 23.8611H15.92C16.0909 23.859 16.2596 23.8214 16.4152 23.7507C16.5708 23.6799 16.7101 23.5776 16.824 23.4502ZM29.0694 7.67087V17.6151L25.0835 12.643L29.0694 7.67087ZM125.43 23.4502L108.171 1.83581C108.065 1.70969 107.933 1.60776 107.784 1.53688C107.636 1.466 107.473 1.42781 107.308 1.42489H104.021C103.912 1.42489 103.808 1.46819 103.73 1.54525C103.653 1.62232 103.61 1.72683 103.61 1.83581V23.4502C103.61 23.5591 103.653 23.6637 103.73 23.7407C103.808 23.8178 103.912 23.8611 104.021 23.8611H107.308C107.473 23.8581 107.636 23.82 107.784 23.7491C107.933 23.6782 108.065 23.5763 108.171 23.4502L114.13 16.0125L120.047 23.4502C120.153 23.5763 120.285 23.6782 120.434 23.7491C120.583 23.82 120.745 23.8581 120.91 23.8611H125.224C125.471 23.8611 125.594 23.6145 125.43 23.4502ZM111.787 12.643L107.801 17.6151V7.67087L111.787 12.643ZM64.2851 0.849609C61.9526 0.849609 59.6725 1.54128 57.7331 2.83715C55.7937 4.13302 54.2821 5.9749 53.3895 8.12985C52.4969 10.2848 52.2633 12.6561 52.7184 14.9438C53.1734 17.2315 54.2966 19.3328 55.946 20.9822C57.5953 22.6315 59.6967 23.7547 61.9844 24.2098C64.2721 24.6648 66.6433 24.4313 68.7983 23.5386C70.9532 22.646 72.7951 21.1344 74.091 19.195C75.3869 17.2556 76.0785 14.9755 76.0785 12.643C76.0785 9.51519 74.836 6.5155 72.6243 4.30381C70.4126 2.09212 67.4129 0.849609 64.2851 0.849609ZM64.2851 20.4094C62.7399 20.451 61.2173 20.0309 59.9121 19.2026C58.6069 18.3743 57.5784 17.1756 56.9581 15.7597C56.3378 14.3437 56.154 12.775 56.43 11.254C56.7061 9.73298 57.4295 8.32891 58.5079 7.22129C59.5862 6.11366 60.9704 5.35284 62.4834 5.0361C63.9965 4.71936 65.5696 4.86109 67.0016 5.44319C68.4337 6.02529 69.6596 7.02129 70.5225 8.30382C71.3855 9.58636 71.8463 11.0972 71.8461 12.643C71.8596 13.6494 71.6748 14.6487 71.3022 15.5837C70.9296 16.5187 70.3764 17.3711 69.6743 18.0923C68.9722 18.8135 68.1349 19.3893 67.2102 19.7869C66.2855 20.1844 65.2916 20.396 64.2851 20.4094ZM139.113 1.83581V17.1631L126.868 1.83581C126.762 1.70969 126.63 1.60776 126.481 1.53688C126.332 1.466 126.17 1.42781 126.005 1.42489H122.718C122.609 1.42489 122.504 1.46819 122.427 1.54525C122.35 1.62232 122.307 1.72683 122.307 1.83581V12.2321C122.307 12.4862 122.394 12.7326 122.553 12.9306L126.046 17.3275C126.078 17.3711 126.124 17.4031 126.176 17.4188C126.227 17.4344 126.283 17.4329 126.334 17.4144C126.385 17.3959 126.428 17.3614 126.458 17.3161C126.487 17.2708 126.502 17.2171 126.498 17.1631V8.12288L138.744 23.4502C138.85 23.5763 138.982 23.6782 139.131 23.7491C139.279 23.82 139.442 23.8581 139.607 23.8611H142.894C143.003 23.8611 143.107 23.8178 143.185 23.7407C143.262 23.6637 143.305 23.5591 143.305 23.4502V1.83581C143.305 1.72683 143.262 1.62232 143.185 1.54525C143.107 1.46819 143.003 1.42489 142.894 1.42489H139.524C139.415 1.42489 139.311 1.46819 139.234 1.54525C139.157 1.62232 139.113 1.72683 139.113 1.83581ZM97.9394 6.5203V1.83581C97.9394 1.72683 97.8961 1.62232 97.8191 1.54525C97.742 1.46819 97.6375 1.42489 97.5285 1.42489H80.2699C80.1609 1.42489 80.0564 1.46819 79.9793 1.54525C79.9023 1.62232 79.859 1.72683 79.859 1.83581V23.4502C79.859 23.5591 79.9023 23.6637 79.9793 23.7407C80.0564 23.8178 80.1609 23.8611 80.2699 23.8611H83.6394C83.7484 23.8611 83.8529 23.8178 83.93 23.7407C84.007 23.6637 84.0504 23.5591 84.0504 23.4502V5.45191H93.7069L87.1733 13.6292C87.1133 13.7053 87.0807 13.7994 87.0807 13.8963C87.0807 13.9932 87.1133 14.0873 87.1733 14.1634L94.611 23.4912C94.7171 23.6174 94.8491 23.7193 94.9979 23.7902C95.1468 23.8611 95.3091 23.8992 95.4739 23.9022H99.7885C99.8359 23.9014 99.8822 23.8877 99.9223 23.8625C99.9624 23.8372 99.9949 23.8015 100.016 23.7591C100.037 23.7167 100.046 23.6693 100.043 23.6221C100.039 23.5748 100.022 23.5296 99.994 23.4912L92.392 13.8347L97.6929 7.17776C97.8576 6.99908 97.946 6.7632 97.9394 6.5203ZM38.7671 23.8611H48.7524C48.9173 23.8581 49.0795 23.82 49.2284 23.7491C49.3772 23.6782 49.5092 23.5763 49.6153 23.4502L52.122 20.2861C52.1498 20.2477 52.1666 20.2025 52.1705 20.1552C52.1743 20.108 52.1652 20.0606 52.144 20.0182C52.1228 19.9758 52.0904 19.9401 52.0503 19.9149C52.0101 19.8896 51.9639 19.8759 51.9165 19.8752H42.5475V1.87691C42.5475 1.76792 42.5042 1.66341 42.4272 1.58635C42.3501 1.50929 42.2456 1.46599 42.1366 1.46599H38.7671C38.6581 1.46599 38.5536 1.50929 38.4765 1.58635C38.3995 1.66341 38.3562 1.76792 38.3562 1.87691V23.4912C38.3664 23.593 38.4142 23.6872 38.4901 23.7556C38.5661 23.824 38.6649 23.8616 38.7671 23.8611Z" fill="#464F61"/>
</svg>
